<?xml version="1.0" encoding="UTF-8"?>
<svg width="60px" height="60px" viewBox="0 0 60 60" version="1.1" xmlns="http://www.w3.org/2000/svg" xmlns:xlink="http://www.w3.org/1999/xlink">
    <!-- Generator: Sketch 58 (84663) - https://sketch.com -->
    <title>编组 4</title>
    <desc>Created with Sketch.</desc>
    <g id="浅" stroke="none" stroke-width="1" fill="none" fill-rule="evenodd">
        <g id="编组-4" transform="translate(1.000000, 1.000000)">
            <rect id="Rectangle-90" stroke-opacity="0.1" stroke="#000000" fill-opacity="0.8" fill="#FFFFFF" x="-0.5" y="-0.5" width="59" height="59" rx="4"></rect>
            <path d="M21.0555556,22 C20.2067222,22 19.4854074,22.2051282 18.8912037,22.8205128 C18.297,23.4358974 18,24.0512821 18,25.0769231 C18,25.8974359 18.297,26.5128205 18.8912037,27.1282051 C19.4854074,27.7435897 20.2067222,28.1538462 21.0555556,28.1538462 C21.9043889,28.1538462 22.6257037,27.7435897 23.2199074,27.1282051 C23.8141111,26.5128205 24.1111111,25.8974359 24.1111111,25.0769231 C24.1111111,24.0512821 23.8141111,23.4358974 23.2199074,22.8205128 C22.6257037,22.2051282 21.9043889,22 21.0555556,22 Z M32.2083333,25.6923077 L24.875,32.9321267 L22.5833333,30.760181 L18,35.2850679 L18,38 L40,38 L40,34.3800905 L32.2083333,25.6923077 Z" id="形状备份-2" fill-opacity="0.25" fill="#000000" fill-rule="nonzero"></path>
        </g>
    </g>
</svg>