<?xml version="1.0" encoding="UTF-8"?>
<svg width="32px" height="32px" viewBox="0 0 32 32" version="1.1" xmlns="http://www.w3.org/2000/svg" xmlns:xlink="http://www.w3.org/1999/xlink">
    <!-- Generator: Sketch 58 (84663) - https://sketch.com -->
    <title>button_tab_close_normal 2</title>
    <desc>Created with Sketch.</desc>
    <defs>
        <circle id="path-1" cx="10.0000013" cy="10.0000013" r="10"></circle>
        <filter x="-60.0%" y="-40.0%" width="220.0%" height="220.0%" filterUnits="objectBoundingBox" id="filter-2">
            <feMorphology radius="1" operator="dilate" in="SourceAlpha" result="shadowSpreadOuter1"></feMorphology>
            <feOffset dx="0" dy="4" in="shadowSpreadOuter1" result="shadowOffsetOuter1"></feOffset>
            <feGaussianBlur stdDeviation="3" in="shadowOffsetOuter1" result="shadowBlurOuter1"></feGaussianBlur>
            <feComposite in="shadowBlurOuter1" in2="SourceAlpha" operator="out" result="shadowBlurOuter1"></feComposite>
            <feColorMatrix values="0 0 0 0 0   0 0 0 0 0   0 0 0 0 0  0 0 0 0.05 0" type="matrix" in="shadowBlurOuter1"></feColorMatrix>
        </filter>
    </defs>
    <g id="浅" stroke="none" stroke-width="1" fill="none" fill-rule="evenodd">
        <g id="按钮规范" transform="translate(-173.000000, -779.000000)">
            <g id="button_tab_close_normal-2" transform="translate(173.000000, 779.000000)">
                <g id="button/tab_close_normal" transform="translate(5.000000, 5.000000)">
                    <g id="button_tab_close_normal" transform="translate(1.000000, 1.000000)">
                        <g id="清除">
                            <g>
                                <use fill="black" fill-opacity="1" filter="url(#filter-2)" xlink:href="#path-1"></use>
                                <circle stroke-opacity="0.05" stroke="#000000" stroke-width="1" fill="#FFFFFF" fill-rule="evenodd" cx="10.0000013" cy="10.0000013" r="10.5"></circle>
                            </g>
                            <path d="M6.64644661,6.64643911 C6.84170876,6.45117696 7.15829124,6.45117696 7.35355339,6.64643911 L7.35355339,6.64643911 L10,9.2929925 L12.6464466,6.64643911 C12.820013,6.47287276 13.0894374,6.45358761 13.2843055,6.58858366 L13.3535534,6.64643911 C13.5488155,6.84170126 13.5488155,7.15828374 13.3535534,7.35354589 L13.3535534,7.35354589 L10.707,9.9999925 L13.3535534,12.6464391 C13.5271197,12.8200055 13.5464049,13.0894299 13.4114088,13.284298 L13.3535534,13.3535459 C13.1582912,13.548808 12.8417088,13.548808 12.6464466,13.3535459 L12.6464466,13.3535459 L10,10.7069925 L7.35355339,13.3535459 C7.17998704,13.5271122 6.91056264,13.5463974 6.7156945,13.4114013 L6.64644661,13.3535459 C6.45118446,13.1582837 6.45118446,12.8417013 6.64644661,12.6464391 L6.64644661,12.6464391 L9.293,9.9999925 L6.64644661,7.35354589 C6.47288026,7.17997954 6.45359511,6.91055514 6.58859116,6.715687 Z" id="形状结合" fill="#536076"></path>
                        </g>
                    </g>
                </g>
            </g>
        </g>
    </g>
</svg>