<?xml version="1.0" encoding="UTF-8"?>
<svg width="48px" height="39px" viewBox="0 0 48 39" version="1.1" xmlns="http://www.w3.org/2000/svg" xmlns:xlink="http://www.w3.org/1999/xlink">
    <!-- Generator: Sketch 47 (45396) - http://www.bohemiancoding.com/sketch -->
    <title>clockwise_rotation_press</title>
    <desc>Created with Sketch.</desc>
    <defs></defs>
    <g id="Page-1" stroke="none" stroke-width="1" fill="none" fill-rule="evenodd">
        <g id="图标" transform="translate(-235.000000, -749.000000)">
            <g id="press" transform="translate(91.000000, 748.000000)">
                <g id="左旋转" transform="translate(144.000000, 0.000000)">
                    <rect id="Rectangle-175" stroke="#FFFFFF" fill="#000000" opacity="0" x="0" y="0" width="48" height="40"></rect>
                    <path d="M19.5753238,14.5753482 C20.8101412,13.5665401 22.360872,13 23.9999757,13 C27.865969,13 30.9999758,16.1340068 30.9999758,20.0000001 C30.9999758,23.8659934 27.865969,27.0000002 23.9999757,27.0000002 C22.6865965,27.0000002 21.4251468,26.6371396 20.33072,25.9623076 C20.0486593,25.7883869 19.9609946,25.4187409 20.1349153,25.1366802 C20.3088361,24.8546196 20.6784821,24.7669549 20.9605427,24.9408756 C21.8669687,25.4997848 22.9106383,25.8000002 23.9999757,25.8000002 C27.2032273,25.8000002 29.7999758,23.2032517 29.7999758,20.0000001 C29.7999758,16.7967485 27.2032273,14.2 23.9999757,14.2 C22.6827434,14.2 21.4362397,14.6405116 20.4290385,15.4290629 L22,17.0000244 L18,17.0000244 L18,13.0000244 L19.5753238,14.5753482 Z M24,21.0000244 C23.4477153,21.0000244 23,20.5523092 23,20.0000244 C23,19.4477397 23.4477153,19.0000244 24,19.0000244 C24.5522847,19.0000244 25,19.4477397 25,20.0000244 C25,20.5523092 24.5522847,21.0000244 24,21.0000244 Z" id="Combined-Shape" fill="#01BCFF"></path>
                </g>
            </g>
        </g>
    </g>
</svg>