<?xml version="1.0" encoding="UTF-8"?>
<svg width="48px" height="39px" viewBox="0 0 48 39" version="1.1" xmlns="http://www.w3.org/2000/svg" xmlns:xlink="http://www.w3.org/1999/xlink">
    <!-- Generator: Sketch 47 (45396) - http://www.bohemiancoding.com/sketch -->
    <title>clockwise_rotation_normal copy</title>
    <desc>Created with Sketch.</desc>
    <defs></defs>
    <g id="Page-1" stroke="none" stroke-width="1" fill="none" fill-rule="evenodd">
        <g id="图标" transform="translate(-235.000000, -649.000000)">
            <g id="normal" transform="translate(91.000000, 648.000000)">
                <g id="左旋转" transform="translate(144.000000, 0.000000)">
                    <rect id="Rectangle-175" stroke="#FFFFFF" fill="#000000" opacity="0" x="0" y="0" width="48" height="40"></rect>
                    <path d="M19.5558715,14.5558959 C20.8978048,13.5648339 22.4273446,13 24,13 C27.8917925,13 31,16.1340068 31,20 C31,23.8659932 27.8917925,27 24,27 C22.7550569,27 21.5039916,26.6371394 20,26 C20.1388354,25.7883867 20.0518923,25.4187407 20,25 C20.3968704,24.8546194 20.7634734,24.7669547 21,25 C21.9421763,25.4997846 22.9772544,25.8 24,26 C27.2345066,25.8 29.8098785,23.2032516 30,20 C29.8098785,16.7967484 27.2345066,14.2 24,14 C22.7420749,14.1702406 21.5126076,14.6364789 20.506259,15.5062834 L22,17.0000244 L18,17.0000244 L18,13.0000244 L19.5558715,14.5558959 Z M24.0000093,21.0000243 C23.4477254,21.0000243 23.0000093,20.5523091 23.0000093,20.0000243 C23.0000093,19.4477396 23.4477254,19.0000243 24.0000093,19.0000243 C24.552297,19.0000243 25.000013,19.4477396 25.0000093,20.0000243 C25.000013,20.5523091 24.552297,21.0000243 24.0000093,21.0000243 Z" id="Combined-Shape" fill="#303030"></path>
                </g>
            </g>
        </g>
    </g>
</svg>