<?xml version="1.0" encoding="UTF-8"?>
<svg width="40px" height="40px" viewBox="0 0 40 40" version="1.1" xmlns="http://www.w3.org/2000/svg" xmlns:xlink="http://www.w3.org/1999/xlink">
    <!-- Generator: Sketch 64 (93537) - https://sketch.com -->
    <title>picture damaged_light</title>
    <desc>Created with Sketch.</desc>
    <defs>
        <path d="M24.254,10 L24.254,10.412 L19.7204602,15.8335776 L23.0550624,17.0462848 C22.8858797,17.1185219 22.7384625,17.232975 22.6421404,17.3860827 L21.533,19.94 L20.0874559,21.4854459 L20.46904,22.0231233 C20.2908553,22.0947637 20.0778976,22.0472674 19.8978257,21.8738126 L18.0397635,20.0840296 C17.6055092,19.8303251 16.963156,19.9638054 16.6917734,20.3641406 L12.9138623,25.9372 C12.5566508,26.4641473 13.0711558,27.0540581 13.7987676,26.9517989 L23.04,25.651 L24.254,27.363 L24.254,27.907 L12.1309272,29.610765 C10.448529,29.8472106 8.90051523,28.7285189 8.67334196,27.1120971 L7.02800744,15.4049336 C6.80083415,13.7885117 7.98052721,12.2864658 9.66292546,12.0500201 L24.254,10 Z M24.726,28.029 L25.299,28.837 L24.8770684,28.8374635 L24.726,28.029 Z M27.044,10.892 L31.4325491,10.8934226 C32.5017946,10.8934226 33.5113058,11.5794154 33.9988008,12.5312057 L33.9988218,27.2000339 C33.5113348,28.1518455 32.5018099,28.837858 31.4325491,28.837858 L28.321,28.837 L23.5369974,21.6600837 L28.0830176,16.4330027 L23.8640829,14.897436 L27.044,10.892 Z M12.6973933,14.181782 C11.3118887,14.376502 10.3465671,15.6575271 10.5412871,17.0430316 C10.736007,18.4285361 12.0170321,19.3938577 13.4025366,19.1991377 C14.7880411,19.0044178 15.7533627,17.7233927 15.5586428,16.3378882 C15.3639228,14.9523837 14.0828978,13.9870621 12.6973933,14.181782 Z M23.536,17.222 L23.9393949,17.3691442 L23.536,17.8 L23.536,17.222 Z" id="path-1"></path>
    </defs>
    <g id="浅色主题12-10" stroke="none" stroke-width="1" fill="none" fill-rule="evenodd">
        <g id="[1-1]-所有照片-图片已损坏" transform="translate(-635.000000, -421.000000)">
            <g id="picture-damaged_light" transform="translate(635.000000, 421.000000)">
                <mask id="mask-2" fill="white">
                    <use xlink:href="#path-1"></use>
                </mask>
                <use id="形状结合" fill-opacity="0.25" fill="#000000" fill-rule="nonzero" xlink:href="#path-1"></use>
            </g>
        </g>
    </g>
</svg>