<?xml version="1.0" encoding="UTF-8"?>
<svg width="36px" height="36px" viewBox="0 0 36 36" version="1.1" xmlns="http://www.w3.org/2000/svg" xmlns:xlink="http://www.w3.org/1999/xlink">
    <title>fit_hover</title>
    <g id="浅" stroke="none" stroke-width="1" fill="none" fill-rule="evenodd">
        <g id="按钮规范" transform="translate(-318.000000, -165.000000)" fill="#001A2E">
            <g id="适合窗口" transform="translate(311.000000, 158.000000)">
                <g id="编组-2" transform="translate(7.000000, 7.000000)">
                    <path d="M11.9925398,9 C10.3398057,9 9,10.3529255 9,11.9925398 L9,24.0074602 C9,25.6601943 10.3529255,27 11.9925398,27 L24.0074602,27 C25.6601943,27 27,25.6470745 27,24.0074602 L27,11.9925398 C27,10.3398057 25.6470745,9 24.0074602,9 L11.9925398,9 Z M24.0059397,10 C25.1072288,10 26,10.8945138 26,11.9940603 L26,24.0059397 C26,25.1072288 25.1054862,26 24.0059397,26 L11.9940603,26 C10.8927712,26 10,25.1054862 10,24.0059397 L10,11.9940603 C10,10.8927712 10.8945138,10 11.9940603,10 L24.0059397,10 Z" id="rect34584"></path>
                    <path d="M12,19.07 L16.929,24 L13,24 C12.4477153,24 12,23.5522847 12,23 L12,19.07 Z M24,19.07 L24,23 C24,23.5522847 23.5522847,24 23,24 L19.07,24 L24,19.07 Z M16.929,12 L12,16.929 L12,13 C12,12.4477153 12.4477153,12 13,12 L16.929,12 Z M23,12 C23.5522847,12 24,12.4477153 24,13 L24,16.929 L19.07,12 L23,12 Z" id="Combined-Shape"></path>
                </g>
            </g>
        </g>
    </g>
</svg>