<?xml version="1.0" encoding="UTF-8" standalone="no"?>
<svg width="25px" height="24px" viewBox="0 0 25 24" version="1.1" xmlns="http://www.w3.org/2000/svg" xmlns:xlink="http://www.w3.org/1999/xlink">
    <!-- Generator: Sketch 3.8.3 (29802) - http://www.bohemiancoding.com/sketch -->
    <title>adapt-image</title>
    <desc>Created with Sketch.</desc>
    <defs></defs>
    <g id="Page-1" stroke="none" stroke-width="1" fill="none" fill-rule="evenodd">
        <rect id="rect34232" transform="translate(12.957834, 11.999999) scale(1, -1) translate(-12.957834, -11.999999) " x="0.957835214" y="-2.27373675e-13" width="23.999998" height="23.999998" rx="1.7382798e-05"></rect>
        <path d="M6.45783521,5 C6.3252389,5.00003381 6.19808469,5.05272997 6.10433521,5.1465 C6.01056518,5.24024948 5.95786903,5.36740369 5.95783521,5.5 L5.95783521,18.5 C5.95789554,18.6325617 6.01058968,18.759675 6.10433521,18.8534 C6.19806832,18.9472067 6.32522455,18.9999397 6.45783521,19 L19.4578352,19 C19.5904459,18.9999397 19.7176021,18.9472067 19.8113352,18.8534 C19.9050808,18.759675 19.9577749,18.6325617 19.9578352,18.5 L19.9578352,5.5 C19.9578014,5.36740369 19.9051052,5.24024948 19.8113352,5.1465 C19.7175857,5.05272997 19.5904315,5.00003381 19.4578352,5 L6.45783521,5 L6.45783521,5 Z M6.95783521,6 L18.9578352,6 L18.9578352,18 L6.95783521,18 L6.95783521,6 L6.95783521,6 Z M9.45003521,8 C9.31742604,8.00206582 9.19106918,8.0567273 9.09876316,8.15195891 C9.00645714,8.24719052 8.95576363,8.37519092 8.95783521,8.5078 L8.95783521,15.4942 C8.95528584,15.6745175 9.05002381,15.8422394 9.20577227,15.9331421 C9.36152072,16.0240448 9.5541497,16.0240448 9.70989816,15.9331421 C9.86564662,15.8422394 9.96038459,15.6745175 9.95783521,15.4942 L9.95783521,8.5078 C9.95994915,8.37248609 9.90712804,8.2420933 9.81143498,8.14640024 C9.71574192,8.05070718 9.58534913,7.99788607 9.45003521,8 L9.45003521,8 Z M16.4500352,8 C16.317426,8.00206582 16.1910692,8.0567273 16.0987632,8.15195891 C16.0064571,8.24719052 15.9557636,8.37519092 15.9578352,8.5078 L15.9578352,15.4942 C15.9552858,15.6745175 16.0500238,15.8422394 16.2057723,15.9331421 C16.3615207,16.0240448 16.5541497,16.0240448 16.7098982,15.9331421 C16.8656466,15.8422394 16.9603846,15.6745175 16.9578352,15.4942 L16.9578352,8.5078 C16.9599491,8.37248609 16.907128,8.2420933 16.811435,8.14640024 C16.7157419,8.05070718 16.5853491,7.99788607 16.4500352,8 L16.4500352,8 Z M12.4129352,10 C12.2342902,10.0090938 12.074069,10.1128087 11.9926321,10.2720719 C11.9111952,10.4313351 11.9209164,10.6219476 12.0181335,10.7720994 C12.1153506,10.9222513 12.2852919,11.0091279 12.4639352,11 L13.4522352,11 C13.6325537,11.0025509 13.8002772,10.9078133 13.8911809,10.7520642 C13.9820845,10.5963151 13.9820845,10.4036849 13.8911809,10.2479358 C13.8002772,10.0921867 13.6325537,9.99744908 13.4522352,10 L12.4639352,10 C12.4469463,9.99913252 12.4299241,9.99913252 12.4129352,10 L12.4129352,10 Z M12.4129352,13 C12.2342902,13.0090938 12.074069,13.1128087 11.9926321,13.2720719 C11.9111952,13.4313351 11.9209164,13.6219476 12.0181335,13.7720994 C12.1153506,13.9222513 12.2852919,14.0091279 12.4639352,14 L13.4483352,14 C13.6286527,14.0025494 13.7963746,13.9078114 13.8872773,13.7520629 C13.97818,13.5963145 13.97818,13.4036855 13.8872773,13.2479371 C13.7963746,13.0921886 13.6286527,12.9974506 13.4483352,13 L12.4620352,13 C12.4450463,12.9991325 12.4280241,12.9991325 12.4110352,13 L12.4129352,13 Z" id="rect34574" fill="#595959"></path>
    </g>
</svg>