<?xml version="1.0" encoding="UTF-8" standalone="no"?>
<svg width="24px" height="24px" viewBox="0 0 24 24" version="1.1" xmlns="http://www.w3.org/2000/svg" xmlns:xlink="http://www.w3.org/1999/xlink">
    <!-- Generator: Sketch 39.1 (31720) - http://www.bohemiancoding.com/sketch -->
    <title>clockwise-rotation</title>
    <desc>Created with Sketch.</desc>
    <defs></defs>
    <g id="Page-1" stroke="none" stroke-width="1" fill="none" fill-rule="evenodd" opacity="0.971">
        <g id="clockwise-rotation-press" transform="translate(5.000000, 4.000000)" fill="#595959">
            <g id="Page-1">
                <g id="深度看图图标导出" transform="translate(0.000000, 0.630005)">
                    <g id="layer1">
                        <g id="clockwise-rotation-press">
                            <path d="M6.64375,0.3641 C5.57475,0.4231 4.51235,0.7277 3.54215,1.2859 C0.95515,2.7743 -0.40445,5.7456 0.15935,8.6766 C0.72315,11.6075 3.08755,13.8616 6.04215,14.284 C7.75215,14.5285 9.44545,14.128 10.83125,13.2332 C10.9831102,13.1370073 11.0716525,12.9667048 11.0631601,12.787143 C11.0546677,12.6075812 10.9504477,12.4463953 10.7901868,12.3649644 C10.6299259,12.2835335 10.4382887,12.2943901 10.28825,12.3934 C9.10015,13.1606 7.65045,13.5036 6.18285,13.2938 C3.64695,12.9312 1.62375,11.0027 1.13985,8.4871 C0.65595,5.9715 1.81985,3.4307 4.04025,2.1531 C6.16725,0.9294 8.80155,1.1415 10.71795,2.6395 L8.99335,4.3563 L12.99725,4.3683 L13.00725,0.3643 L11.43305,1.9308 C10.34505,1.0487 9.05245,0.5184 7.71435,0.3878 C7.35995,0.3528 7.00225,0.3448 6.64595,0.3648 L6.64375,0.3641 L6.64375,0.3641 Z M7.00705,6.3523 C6.4562504,6.3565919 6.0126301,6.8054882 6.01485,7.3563 C6.017053,7.907022 6.4641236,8.3523044 7.01485,8.3523 C7.5647958,8.3512044 8.0106512,7.9062425 8.01285,7.3563 C8.0150702,6.8055269 7.5715104,6.3566467 7.02075,6.3523 L7.00675,6.3523 L7.00705,6.3523 L7.00705,6.3523 Z" id="path34706"></path>
                        </g>
                    </g>
                </g>
            </g>
        </g>
    </g>
</svg>