<?xml version="1.0" encoding="UTF-8" standalone="no"?>
<svg width="24px" height="24px" viewBox="0 0 24 24" version="1.1" xmlns="http://www.w3.org/2000/svg" xmlns:xlink="http://www.w3.org/1999/xlink">
    <!-- Generator: Sketch 39.1 (31720) - http://www.bohemiancoding.com/sketch -->
    <title>contrarotate</title>
    <desc>Created with Sketch.</desc>
    <defs></defs>
    <g id="Page-1" stroke="none" stroke-width="1" fill="none" fill-rule="evenodd" opacity="0.971">
        <g id="contrarotate-press" transform="translate(0.000000, -1.000000)">
            <g id="Page-1">
                <g id="深度看图图标导出" transform="translate(0.000000, 0.630005)">
                    <g id="layer1">
                        <g id="contrarotate-press">
                            <rect id="rect34694" fill="#000000" opacity="0" transform="translate(12.001159, 12.362401) scale(1, -1) translate(-12.001159, -12.362401) " x="0.00116" y="0.362402" width="23.999998" height="23.999998" rx="1.7382798e-05"></rect>
                            <path d="M6.00115,5.3621 L6.00115,9.3621 L10.00115,9.3621 L8.30005,7.6609 C10.21775,6.1514 12.86035,5.9356 14.99335,7.1628 C17.21375,8.4404 18.37765,10.9813 17.89375,13.4969 C17.40985,16.0124 15.38665,17.9409 12.85075,18.3034 C11.38315,18.5133 9.93345,18.1702 8.74535,17.403 C8.59531602,17.3059812 8.40491821,17.2963805 8.24588583,17.3778148 C8.08685346,17.4592491 7.98335063,17.6193449 7.97437036,17.7977887 C7.96539009,17.9762326 8.05229687,18.1459108 8.20235,18.2429 C9.58815,19.1377 11.28145,19.5362 12.99145,19.2917 C15.94605,18.8693 18.31045,16.6152 18.87425,13.6843 C19.43805,10.7533 18.07845,7.7841 15.49145,6.2956 C14.19785,5.5514 12.73905,5.2588 11.32145,5.3972 C9.97745,5.5283 8.67805,6.0589 7.58715,6.948 L6.00115,5.362 L6.00115,5.3621 L6.00115,5.3621 Z M12.01285,11.3621 C11.4621679,11.3664465 11.0186402,11.8152048 11.02075,12.3659 C11.0228391,12.9159207 11.4687265,13.3610039 12.01875,13.3621 C12.5703344,13.3632071 13.018655,12.9174815 13.02075,12.3659 C13.0228549,11.8143908 12.578054,11.3652948 12.02655,11.3621 L12.01255,11.3621 L12.01285,11.3621 L12.01285,11.3621 Z" id="path34698" fill="#595959"></path>
                        </g>
                    </g>
                </g>
            </g>
        </g>
    </g>
</svg>