<?xml version="1.0" encoding="UTF-8" standalone="no"?>
<svg width="24px" height="24px" viewBox="0 0 24 24" version="1.1" xmlns="http://www.w3.org/2000/svg" xmlns:xlink="http://www.w3.org/1999/xlink">
    <!-- Generator: Sketch 3.8.3 (29802) - http://www.bohemiancoding.com/sketch -->
    <title>delete</title>
    <desc>Created with Sketch.</desc>
    <defs></defs>
    <g id="Page-1" stroke="none" stroke-width="1" fill="none" fill-rule="evenodd">
        <rect id="rect34498" transform="translate(11.999999, 11.999999) scale(1, -1) translate(-11.999999, -11.999999) " x="0" y="0" width="23.999998" height="23.999998" rx="1.7382798e-05"></rect>
        <path d="M13.4477983,4.0019 C13.4361352,4.00149158 13.4244614,4.00149158 13.4127983,4.0019 L9.46359827,4.0019 C9.44660934,4.00103252 9.42958721,4.00103252 9.41259827,4.0019 C9.1447454,4.02564219 8.94362841,4.2569621 8.95735067,4.5255148 C8.97107293,4.7940675 9.19472044,5.00368318 9.46359827,5 L13.4127983,5 C13.5918534,5.00693795 13.7609466,4.91758704 13.8561041,4.76575186 C13.9512616,4.61391668 13.9579512,4.42278489 13.873642,4.26466837 C13.7893329,4.10655186 13.6269003,4.00559755 13.4477983,4 L13.4477983,4.0019 Z M4.47519827,6.0019 C4.29655325,6.01099382 4.13633205,6.1147087 4.05489514,6.27397191 C3.97345823,6.43323512 3.98317946,6.62384758 4.08039654,6.77399944 C4.17761362,6.9241513 4.34755499,7.01102789 4.52619827,7.0019 L18.4323983,7.0019 C18.6127152,7.0044486 18.7804363,6.90971046 18.8713386,6.75396232 C18.9622408,6.59821418 18.9622408,6.40558582 18.8713386,6.24983768 C18.7804363,6.09408954 18.6127152,5.9993514 18.4323983,6.0019 L4.52619827,6.0019 C4.50920934,6.00103252 4.49218721,6.00103252 4.47519827,6.0019 L4.47519827,6.0019 Z M6.43609827,8.0019 C6.3034891,8.00396582 6.17713224,8.0586273 6.08482622,8.15385891 C5.9925202,8.24909052 5.94182669,8.37709092 5.94389827,8.5097 L5.94389827,18.5019 C5.94392587,18.7780309 6.16776733,19.0018724 6.44389827,19.0019 L16.4438983,19.0019 C16.7200292,19.0018724 16.9438707,18.7780309 16.9438983,18.5019 L16.9438983,8.5097 C16.9464476,8.32938255 16.8517097,8.16166063 16.6959612,8.07075793 C16.5402128,7.97985523 16.3475838,7.97985523 16.1918353,8.07075793 C16.0360869,8.16166063 15.9413489,8.32938255 15.9438983,8.5097 L15.9438983,18.0019 L6.94389827,18.0019 L6.94389827,8.5097 C6.94601221,8.37438609 6.8931911,8.2439933 6.79749804,8.14830024 C6.70180498,8.05260718 6.57141219,7.99978607 6.43609827,8.0019 L6.43609827,8.0019 Z M9.43609827,8.9726 C9.16070525,8.97690451 8.94064245,9.20309258 8.94389827,9.4785 C8.9435779,9.48883085 8.9435779,9.49916915 8.94389827,9.5095 L8.94389827,16.5271 C8.9413489,16.7074175 9.03608687,16.8751394 9.19183532,16.9660421 C9.34758378,17.0569448 9.54021276,17.0569448 9.69596122,16.9660421 C9.85170968,16.8751394 9.94644765,16.7074175 9.94389827,16.5271 L9.94389827,9.5095 L9.94389827,9.4785 C9.94549394,9.34351332 9.89244402,9.21361611 9.7968086,9.11833853 C9.70117319,9.02306094 9.57107803,8.97049833 9.43609827,8.9726 L9.43609827,8.9726 Z M11.4360983,9.0016 C11.3034891,9.00366581 11.1771322,9.05832729 11.0848262,9.1535589 C10.9925202,9.24879051 10.9418267,9.37679091 10.9438983,9.5094 L10.9438983,16.527 C10.9413497,16.7073169 11.0360878,16.8750381 11.191836,16.9659403 C11.3475841,17.0568425 11.5402125,17.0568425 11.6959606,16.9659403 C11.8517087,16.8750381 11.9464469,16.7073169 11.9438983,16.527 L11.9438983,9.5094 C11.9460122,9.37408609 11.8931911,9.24369329 11.797498,9.14800023 C11.701805,9.05230716 11.5714122,8.99948606 11.4360983,9.0016 L11.4360983,9.0016 Z M13.4360983,9.0326 C13.1607052,9.03690449 12.9406424,9.26309257 12.9438983,9.5385 L12.9438983,16.5034 C12.9413497,16.6837169 13.0360878,16.8514381 13.191836,16.9423403 C13.3475841,17.0332425 13.5402125,17.0332425 13.6959606,16.9423403 C13.8517087,16.8514381 13.9464469,16.6837169 13.9438983,16.5034 L13.9438983,9.5385 C13.9454667,9.40353055 13.8924048,9.27365939 13.7967724,9.17840365 C13.70114,9.08314791 13.5710605,9.03059891 13.4360983,9.0327 L13.4360983,9.0326 Z" id="line34500" fill="#595959"></path>
    </g>
</svg>