<?xml version="1.0" encoding="UTF-8"?>
<svg width="48px" height="39px" viewBox="0 0 48 39" version="1.1" xmlns="http://www.w3.org/2000/svg" xmlns:xlink="http://www.w3.org/1999/xlink">
    <!-- Generator: Sketch 47 (45396) - http://www.bohemiancoding.com/sketch -->
    <title>adapt_image_normal copy</title>
    <desc>Created with Sketch.</desc>
    <defs></defs>
    <g id="Page-1" stroke="none" stroke-width="1" fill="none" fill-rule="evenodd">
        <g id="图标" transform="translate(-91.000000, -313.000000)">
            <g id="normal" transform="translate(91.000000, 312.000000)">
                <g id="1:1">
                    <rect id="Rectangle-175" stroke="#FFFFFF" fill="#000000" opacity="0" transform="translate(24.000000, 20.000000) scale(-1, 1) translate(-24.000000, -20.000000) " x="0" y="0" width="48" height="40"></rect>
                    <path d="M17.5,13 C17.3674037,13.0000338 17.2402495,13.05273 17.1465,13.1465 C17.05273,13.2402495 17.0000338,13.3674037 17,13.5 L17,26.5 C17.0000603,26.6325617 17.0527545,26.759675 17.1465,26.8534 C17.2402331,26.9472067 17.3673893,26.9999397 17.5,27 L30.5,27 C30.6326107,26.9999397 30.7597669,26.9472067 30.8535,26.8534 C30.9472455,26.759675 30.9999397,26.6325617 31,26.5 L31,13.5 C30.9999662,13.3674037 30.94727,13.2402495 30.8535,13.1465 C30.7597505,13.05273 30.6325963,13.0000338 30.5,13 L17.5,13 L17.5,13 Z M18,14 L30,14 L30,26 L18,26 L18,14 L18,14 Z M20.4922,16 C20.3595908,16.0020658 20.233234,16.0567273 20.1409279,16.1519589 C20.0486219,16.2471905 19.9979284,16.3751909 20,16.5078 L20,23.4942 C19.9974506,23.6745175 20.0921886,23.8422394 20.2479371,23.9331421 C20.4036855,24.0240448 20.5963145,24.0240448 20.7520629,23.9331421 C20.9078114,23.8422394 21.0025494,23.6745175 21,23.4942 L21,16.5078 C21.0021139,16.3724861 20.9492928,16.2420933 20.8535998,16.1464002 C20.7579067,16.0507072 20.6275139,15.9978861 20.4922,16 L20.4922,16 Z M27.4922,16 C27.3595908,16.0020658 27.233234,16.0567273 27.1409279,16.1519589 C27.0486219,16.2471905 26.9979284,16.3751909 27,16.5078 L27,23.4942 C26.9974506,23.6745175 27.0921886,23.8422394 27.2479371,23.9331421 C27.4036855,24.0240448 27.5963145,24.0240448 27.7520629,23.9331421 C27.9078114,23.8422394 28.0025494,23.6745175 28,23.4942 L28,16.5078 C28.0021139,16.3724861 27.9492928,16.2420933 27.8535998,16.1464002 C27.7579067,16.0507072 27.6275139,15.9978861 27.4922,16 L27.4922,16 Z M23.4551,18 C23.276455,18.0090938 23.1162338,18.1128087 23.0347969,18.2720719 C22.95336,18.4313351 22.9630812,18.6219476 23.0602983,18.7720994 C23.1575153,18.9222513 23.3274567,19.0091279 23.5061,19 L24.4944,19 C24.6747185,19.0025509 24.842442,18.9078133 24.9333457,18.7520642 C25.0242493,18.5963151 25.0242493,18.4036849 24.9333457,18.2479358 C24.842442,18.0921867 24.6747185,17.9974491 24.4944,18 L23.5061,18 C23.4891111,17.9991325 23.4720889,17.9991325 23.4551,18 L23.4551,18 Z M23.4551,21 C23.276455,21.0090938 23.1162338,21.1128087 23.0347969,21.2720719 C22.95336,21.4313351 22.9630812,21.6219476 23.0602983,21.7720994 C23.1575153,21.9222513 23.3274567,22.0091279 23.5061,22 L24.4905,22 C24.6708175,22.0025494 24.8385394,21.9078114 24.9294421,21.7520629 C25.0203448,21.5963145 25.0203448,21.4036855 24.9294421,21.2479371 C24.8385394,21.0921886 24.6708175,20.9974506 24.4905,21 L23.5042,21 C23.4872111,20.9991325 23.4701889,20.9991325 23.4532,21 L23.4551,21 Z" id="rect34574" fill="#FFFFFF" opacity="0.6"></path>
                </g>
            </g>
        </g>
    </g>
</svg>