<?xml version="1.0" encoding="UTF-8"?>
<svg width="151px" height="151px" viewBox="0 0 151 151" version="1.1" xmlns="http://www.w3.org/2000/svg" xmlns:xlink="http://www.w3.org/1999/xlink">
    <!-- Generator: Sketch 64 (93537) - https://sketch.com -->
    <title>picture damaged_dark</title>
    <desc>Created with Sketch.</desc>
    <defs>
        <rect id="path-1" x="0" y="0" width="150" height="150"></rect>
        <path d="M92.718,27.002 L71.2483554,55.0422429 L85.5073876,61.7975043 L75.0811037,84.7369719 C74.1814985,85.2259265 73.047794,85.0363519 72.1023611,84.1256611 L63.1558883,75.507949 C61.0649765,74.2863746 57.972079,74.9290757 56.6653859,76.8566688 L38.4749403,103.69066 C36.7549853,106.227884 39.2323002,109.068274 42.7357131,108.575902 L86.039,102.488 L92.746,113.22 L34.7051482,121.378685 C26.6044879,122.517159 19.1508822,117.130716 18.0570547,109.347729 L10.1348544,52.9783447 C9.04102678,45.195357 14.7211876,37.9630837 22.8218479,36.8246102 L92.718,27.002 Z M106.508,31.254 L127.641456,31.255653 C132.789745,31.255653 137.650424,34.5585795 139.997725,39.1412994 L139.997725,109.771532 C137.650424,114.354252 132.789745,117.657178 127.641456,117.657178 L112.665,117.657 L89.6247843,83.0965675 L111.513636,57.9284438 L91.1996837,50.53477 L106.508,31.254 Z M37.4326528,47.0889332 C30.7615205,48.0264997 26.113547,54.1945688 27.0511135,60.8657011 C27.98868,67.5368335 34.1567491,72.184807 40.8278815,71.2472404 C47.4990138,70.3096739 52.1469873,64.1416048 51.2094208,57.4704724 C50.2718543,50.7993401 44.1037851,46.1513667 37.4326528,47.0889332 Z" id="path-3"></path>
    </defs>
    <g id="深色主题12-10" stroke="none" stroke-width="1" fill="none" fill-rule="evenodd">
        <g id="图片加载失败" transform="translate(-884.000000, -424.000000)">
            <g id="icon_import_photo" transform="translate(884.000000, 424.000000)">
                <g id="picture-damaged_dark" transform="translate(0.989781, 0.382727)">
                    <mask id="mask-2" fill="white">
                        <use xlink:href="#path-1"></use>
                    </mask>
                    <g id="矩形"></g>
                    <mask id="mask-4" fill="white">
                        <use xlink:href="#path-3"></use>
                    </mask>
                    <use id="形状结合" fill-opacity="0.05" fill="#FFFFFF" fill-rule="nonzero" xlink:href="#path-3"></use>
                </g>
            </g>
        </g>
    </g>
</svg>