<?xml version="1.0" encoding="UTF-8"?>
<svg width="48px" height="39px" viewBox="0 0 48 39" version="1.1" xmlns="http://www.w3.org/2000/svg" xmlns:xlink="http://www.w3.org/1999/xlink">
    <!-- Generator: Sketch 47 (45396) - http://www.bohemiancoding.com/sketch -->
    <title>collect_normal copy</title>
    <desc>Created with Sketch.</desc>
    <defs></defs>
    <g id="Page-1" stroke="none" stroke-width="1" fill="none" fill-rule="evenodd">
        <g id="图标" transform="translate(-187.000000, -313.000000)">
            <g id="normal" transform="translate(91.000000, 312.000000)">
                <g id="收藏" transform="translate(96.000000, 0.000000)">
                    <rect id="Rectangle-175" stroke="#FFFFFF" fill="#000000" opacity="0" x="0" y="0" width="48" height="40"></rect>
                    <path d="M19.3984,13.085669 C17.5589,13.467769 16,15.108569 16,17.562269 C16,20.045569 17.7354,21.757169 19.4941,23.120869 C21.2529,24.484469 23.068,25.635969 23.5469,26.673569 C23.6300732,26.8510012 23.8092198,26.9634997 24.005167,26.9613467 C24.2011142,26.9591937 24.3777456,26.8427859 24.457,26.663569 C24.9419,25.572669 26.7495,24.406269 28.5059,23.044469 C30.2622,21.682569 32,19.998669 32,17.560069 C32,15.106369 30.4411,13.465569 28.6016,13.083469 C26.9697,12.744569 25.1584,13.441069 24,15.110869 C22.8416,13.441069 21.0303,12.744569 19.3984,13.083469 L19.3984,13.085669 Z M19.6016,14.066169 C21.012,13.773269 22.6429,14.367669 23.5527,16.187269 C23.6373879,16.3567238 23.8105614,16.4637733 24,16.4637733 C24.1894386,16.4637733 24.3626121,16.3567238 24.4473,16.187269 C25.3571,14.367669 26.988,13.773269 28.3984,14.066169 C29.8089,14.358969 31,15.515969 31,17.562269 C31,19.523669 29.5882,20.942469 27.8945,22.255469 C26.413,23.404269 24.8702,24.427569 23.9961,25.730169 C23.1178,24.469169 21.5838,23.474569 20.1074,22.329769 C18.4162,21.018369 17,19.578869 17,17.562269 C17,15.515969 18.1911,14.359069 19.6016,14.066169 L19.6016,14.066169 Z" id="path34464" fill="#FFFFFF" opacity="0.6"></path>
                </g>
            </g>
        </g>
    </g>
</svg>