<?xml version="1.0" encoding="UTF-8" standalone="no"?>
<svg width="64px" height="64px" viewBox="0 0 64 64" version="1.1" xmlns="http://www.w3.org/2000/svg" xmlns:xlink="http://www.w3.org/1999/xlink">
    <!-- Generator: Sketch 3.8.3 (29802) - http://www.bohemiancoding.com/sketch -->
    <title>图片查看-64px</title>
    <desc>Created with Sketch.</desc>
    <defs></defs>
    <g id="Page-1" stroke="none" stroke-width="1" fill="none" fill-rule="evenodd">
        <g id="图片查看-64px" fill="#B5B5B6">
            <path d="M52,28.3091218 L52,14.0065012 C52,12.3423094 50.6566554,11 48.9995558,11 L9.00044415,11 C7.35178054,11 6,12.3460564 6,14.0065012 L6,47.9934988 C6,49.6576906 7.34334461,51 9.00044415,51 L32.8194675,51 C31.5281805,49.5572604 30.5120396,47.863099 29.8535285,46 L10.2878289,46 C9.2421877,46 8.63395711,44.8126064 9.24172372,43.9577834 C9.24172372,43.9577834 16.4300784,35 17.7156409,33.4999847 C19.0012033,31.5000153 20.2867659,33.125 20.2867659,33.125 L24.7623575,36.9270734 C24.9706015,37.1039794 25.2727214,37.0647741 25.4321812,36.8352753 L33.2559385,25.5751245 C33.7794365,24.7862324 34.9423968,24.8140347 35.4279518,25.6270497 L36.8840717,27.7920262 C39.0014394,26.6488704 41.4249438,26 44,26 C46.9411522,26 49.6845971,26.8464855 52,28.3091218 L52,28.3091218 Z M18,28 C21.3137085,28 24,25.3137085 24,22 C24,18.6862915 21.3137085,16 18,16 C14.6862915,16 12,18.6862915 12,22 C12,25.3137085 14.6862915,28 18,28 Z M44.1818182,28 C36.9133636,28 31,33.9319008 31,41.2231405 C31,48.5143802 36.9133636,54.446281 44.1818182,54.446281 C51.4502727,54.446281 57.3636364,48.5143802 57.3636364,41.2231405 C57.3636364,33.9319008 51.4502727,28 44.1818182,28 Z M44.1818182,51.8016529 C38.366,51.8016529 33.6363636,47.0571901 33.6363636,41.2231405 C33.6363636,35.3890909 38.366,30.6446281 44.1818182,30.6446281 C49.9976364,30.6446281 54.7272727,35.3890909 54.7272727,41.2231405 C54.7272727,47.0571901 49.9976364,51.8016529 44.1818182,51.8016529 Z M44.1818182,49.1570248 C48.5498885,49.1570248 52.0909091,45.6049038 52.0909091,41.2231405 C52.0909091,36.8413772 48.5498885,33.2892562 44.1818182,33.2892562 C39.8137479,33.2892562 36.2727273,36.8413772 36.2727273,41.2231405 C36.2727273,45.6049038 39.8137479,49.1570248 44.1818182,49.1570248 Z M58.2072727,56.8158678 L59.71,55.3084298 C60.1239091,54.8932231 59.9578182,54.1527273 59.5623636,53.7586777 C59.5623636,53.7586777 56.4368405,50.6194113 54.874079,49.0497781 C53.5,51 51.8609873,52.0543354 51.8609873,52.0543354 L56.5595455,56.7735537 C56.9523636,57.1676033 57.796,57.2310744 58.2072727,56.8158678 Z" id="Combined-Shape"></path>
        </g>
    </g>
</svg>