<?xml version="1.0" encoding="UTF-8" standalone="no"?>
<svg width="64px" height="64px" viewBox="0 0 64 64" version="1.1" xmlns="http://www.w3.org/2000/svg" xmlns:xlink="http://www.w3.org/1999/xlink">
    <!-- Generator: Sketch 3.8.3 (29802) - http://www.bohemiancoding.com/sketch -->
    <title>图片管理-64px</title>
    <desc>Created with Sketch.</desc>
    <defs></defs>
    <g id="Page-1" stroke="none" stroke-width="1" fill="none" fill-rule="evenodd">
        <g id="图片管理-64px" fill="#B5B5B6">
            <path d="M52,29.2396674 L52,14.0065012 C52,12.3423094 50.6566554,11 48.9995558,11 L9.00044415,11 C7.35178054,11 6,12.3460564 6,14.0065012 L6,47.9934988 C6,49.6576906 7.34334461,51 9.00044415,51 L30.7383898,51 C31.2857659,49.8987221 32.0180337,48.4315178 32.0316836,48.4363752 L28,47.0024259 L28,46 L10.2878289,46 C9.2421877,46 8.63395711,44.8126064 9.24172372,43.9577834 C9.24172372,43.9577834 16.4300784,35 17.7156409,33.4999847 C19.0012033,31.5000153 20.2867659,33.125 20.2867659,33.125 L24.7623575,36.9270734 C24.9706015,37.1039794 25.2727214,37.0647741 25.4321812,36.8352753 L33.2559385,25.5751245 C33.7794365,24.7862324 34.9423968,24.8140347 35.4279518,25.6270497 L37.7410351,29.0661697 L39.6721704,29.9838342 C39.6535892,29.9750081 40.9975741,26 40.9975741,26 L49.000956,26 L50.4385427,30.0335509 C50.435112,30.0239102 51.1757757,29.6510656 52,29.2396674 L52,29.2396674 Z M18,28 C21.3137085,28 24,25.3137085 24,22 C24,18.6862915 21.3137085,16 18,16 C14.6862915,16 12,18.6862915 12,22 C12,25.3137085 14.6862915,28 18,28 L18,28 Z M59,44.8853333 L59,41.1146667 L56.963,40.3901667 C56.186,40.1136667 55.5606667,39.521 55.2456667,38.7591667 L55.2456667,38.758 C54.9283333,37.9938333 54.9505,37.1316667 55.3063333,36.3861667 L56.2338333,34.4343333 L53.568,31.7685 L51.6161667,32.696 C50.8695,33.0506667 50.0073333,33.0728333 49.2443333,32.7566667 L49.2431667,32.7566667 C48.4813333,32.4405 47.8886667,31.8163333 47.6121667,31.0393333 L46.8853333,29 L43.1146667,29 L42.3901667,31.037 C42.1136667,31.814 41.521,32.4393333 40.7591667,32.7543333 L40.758,32.7543333 C39.9938333,33.0716667 39.1316667,33.0483333 38.385,32.6936667 L36.4331667,31.7661667 L33.7673333,34.432 L34.6948333,36.3838333 C35.0495,37.1305 35.0716667,37.9926667 34.7555,38.7568333 L34.7555,38.758 C34.4393333,39.5198333 33.8151667,40.1125 33.0381667,40.389 L31,41.1146667 L31,44.8853333 L33.037,45.6098333 C33.814,45.8863333 34.4393333,46.479 34.7543333,47.2408333 L34.7543333,47.242 C35.0705,48.0061667 35.0483333,48.8671667 34.6936667,49.6138333 L33.7661667,51.5656667 L36.432,54.2315 L38.3838333,53.304 C39.1305,52.9493333 39.9926667,52.9271667 40.7568333,53.2433333 L40.758,53.2433333 C41.5198333,53.5595 42.1125,54.1836667 42.389,54.9606667 L43.1146667,57 L46.8853333,57 L47.6051667,54.9758333 C47.884,54.1918333 48.4825,53.5606667 49.2513333,53.241 L49.2525,53.241 C50.0085,52.926 50.8636667,52.9481667 51.6033333,53.2993333 L53.568,54.2326667 L56.2338333,51.5668333 L55.3051667,49.6138333 C54.9505,48.8683333 54.9283333,48.0061667 55.2445,47.2431667 L55.2445,47.242 C55.5606667,46.479 56.186,45.8863333 56.9641667,45.6098333 L59,44.8853333 L59,44.8853333 Z M45,48.1345 C42.1638333,48.1345 39.8655,45.8361667 39.8655,43 C39.8655,40.1638333 42.1638333,37.8655 45,37.8655 C47.835,37.8655 50.1345,40.1638333 50.1345,43 C50.1345,45.8361667 47.835,48.1345 45,48.1345 L45,48.1345 Z" id="Combined-Shape"></path>
        </g>
    </g>
</svg>