<?xml version="1.0" encoding="UTF-8" standalone="no"?>
<svg width="24px" height="24px" viewBox="0 0 24 24" version="1.1" xmlns="http://www.w3.org/2000/svg" xmlns:xlink="http://www.w3.org/1999/xlink">
    <!-- Generator: Sketch 3.8.3 (29802) - http://www.bohemiancoding.com/sketch -->
    <title>图片查看-24px</title>
    <desc>Created with Sketch.</desc>
    <defs></defs>
    <g id="Page-1" stroke="none" stroke-width="1" fill="none" fill-rule="evenodd">
        <g id="图片查看-24px" fill="#B5B5B6">
            <path d="M21,4 C21,3.5 20.5,3 20,3 L3,3 C2.5,3 2,3.5 2,4 L2,18 C2,18.5 2.5,18.9951544 3,19 C3,19 11.8278999,19.0000004 12,19 C11.5980696,18.4853618 11.2218366,17.6276334 11,17 L4,17 C3.5,17 3,16.5 3.5,16 C3.5,16 6.25316684,12.7866957 6.77739219,12.175021 C7.30161754,11.3594755 7.82584296,12.0221101 7.82584296,12.0221101 L9.65089517,13.5725158 C9.73581272,13.6446543 9.85901085,13.6286672 9.92403523,13.5350825 L13.1143991,8.94342954 C13.3278706,8.62173592 13.8021013,8.63307311 14.0001005,8.96460356 L14.5,9.5 C15.3634181,9.03384506 16,8.96460342 17.5,8.96460342 C19,8.96460342 20.0558273,9.40356766 21,10 L21,4 Z M6.89334787,9.93224282 C8.24460858,9.93224282 9.34002181,8.83682959 9.34002181,7.48556888 C9.34002181,6.13430818 8.24460858,5.03889495 6.89334787,5.03889495 C5.54208717,5.03889495 4.44667394,6.13430818 4.44667394,7.48556888 C4.44667394,8.83682959 5.54208717,9.93224282 6.89334787,9.93224282 Z M12,15.5 C12,18.5327 14.4673,21 17.5,21 C20.5327,21 23,18.5327 23,15.5 C23,12.4673 20.5327,10 17.5,10 C14.4673,10 12,12.4673 12,15.5 Z M17.5,20 C15.01825,20 13,17.98175 13,15.5 C13,13.01825 15.01825,11 17.5,11 C19.98175,11 22,13.01825 22,15.5 C22,17.98175 19.98175,20 17.5,20 Z M17.5,19 C19.4329966,19 21,17.4329966 21,15.5 C21,13.5670034 19.4329966,12 17.5,12 C15.5670034,12 14,13.5670034 14,15.5 C14,17.4329966 15.5670034,19 17.5,19 Z M23.1305127,21.7040279 L23.6877797,21.1422284 C23.8412725,20.9874872 23.7796799,20.7115155 23.6330307,20.5646592 C23.6330307,20.5646592 22.4739708,19.3947019 21.8944409,18.8097233 C21.8918604,18.813404 21.8892774,18.8170761 21.886692,18.8207397 C21.378741,19.5405113 20.7770748,19.9294765 20.7770748,19.9294765 L22.5194744,21.6882581 C22.6651459,21.8351144 22.9779975,21.8587691 23.1305127,21.7040279 Z" id="Combined-Shape"></path>
        </g>
    </g>
</svg>