<?xml version="1.0" encoding="UTF-8" standalone="no"?>
<svg width="24px" height="24px" viewBox="0 0 24 24" version="1.1" xmlns="http://www.w3.org/2000/svg" xmlns:xlink="http://www.w3.org/1999/xlink">
    <!-- Generator: Sketch 3.8.3 (29802) - http://www.bohemiancoding.com/sketch -->
    <title>folder</title>
    <desc>Created with Sketch.</desc>
    <defs></defs>
    <g id="Page-1" stroke="none" stroke-width="1" fill="none" fill-rule="evenodd">
        <rect id="rect34108" transform="translate(11.994474, 11.999999) scale(1, -1) translate(-11.994474, -11.999999) " x="-0.00552478573" y="-2.27373675e-13" width="23.999998" height="23.999998" rx="1.7382798e-05"></rect>
        <path d="M7.45337521,5 C7.40360284,5.00099946 7.35425872,5.00942571 7.30697521,5.025 C7.25897732,5.04009293 7.2135322,5.06234351 7.17217521,5.091 C7.14478002,5.10975737 7.11932105,5.13119651 7.09617521,5.155 C7.08520031,5.16747685 7.07485414,5.180493 7.06517521,5.194 C7.05482795,5.20717233 7.04514908,5.22085625 7.03617521,5.235 C7.0278138,5.24895076 7.02013801,5.26330115 7.01317521,5.278 C7.0060513,5.29333535 6.99970982,5.30902217 6.99417521,5.325 C6.98268049,5.35609226 6.97430596,5.38825046 6.96917521,5.421 C6.96496012,5.43781517 6.96162228,5.45483816 6.95917521,5.472 C6.95837448,5.48832352 6.95837448,5.50467648 6.95917521,5.521 C6.9604558,5.55472033 6.96514638,5.58822443 6.97317521,5.621 C6.97772702,5.63692193 6.98306694,5.65260793 6.98917521,5.668 C6.9943825,5.68395887 7.00039011,5.6996454 7.00717521,5.715 C7.01413801,5.72969885 7.0218138,5.74404924 7.03017521,5.758 C7.07382304,5.83000295 7.13494572,5.88981856 7.20787521,5.9319 C7.2218057,5.94060134 7.23615643,5.94861105 7.25087521,5.9559 C7.31408795,5.98471307 7.38261083,6.00003876 7.45207521,6.0009 L16.5126752,6.0009 C16.5961735,5.99979038 16.6780646,5.97778775 16.7508752,5.9369 C16.7801301,5.92005177 16.8076036,5.90028426 16.8328752,5.8779 C16.9750427,5.754845 17.0361638,5.56244076 16.9910752,5.3799 C16.9832317,5.3475463 16.9721768,5.31605673 16.9580752,5.2859 C16.9511124,5.27120115 16.9434366,5.25685076 16.9350752,5.2429 C16.9174829,5.21425054 16.8970462,5.18744827 16.8740752,5.1629 C16.8399958,5.12585116 16.8005174,5.0941606 16.7569752,5.0689 C16.7430245,5.06053859 16.7286741,5.0528628 16.7139752,5.0459 C16.6507625,5.01708693 16.5822396,5.00176124 16.5127752,5.0009 L7.45217521,5.0009 L7.45337521,5 Z M6.48077521,7 C6.46378628,6.99913252 6.44676415,6.99913252 6.42977521,7 C6.41328532,7.00251399 6.39693154,7.00585149 6.38077521,7.01 C6.364889,7.01389517 6.34920348,7.01856745 6.33377521,7.024 C6.26984676,7.0446596 6.21073695,7.07798964 6.15997521,7.122 C6.14710383,7.13238145 6.13475532,7.14339499 6.12297521,7.155 C6.11200031,7.16747685 6.10165414,7.180493 6.09197521,7.194 C6.07156468,7.22017174 6.05381045,7.24831051 6.03897521,7.278 C6.01691279,7.32300924 6.00174323,7.3710799 5.99397521,7.4206 C5.98976012,7.43741517 5.98642228,7.45443816 5.98397521,7.4716 C5.98063384,7.5048496 5.98063384,7.5383504 5.98397521,7.5716 C5.9864892,7.5880899 5.98982671,7.60444368 5.99397521,7.6206 C5.99852702,7.63652193 6.00386694,7.65220793 6.00997521,7.6676 C6.02063434,7.6988811 6.03436816,7.72902851 6.05097521,7.7576 C6.07700281,7.80060712 6.10936663,7.83944371 6.14697521,7.8728 C6.19697256,7.91729472 6.25539337,7.95129985 6.31877521,7.9728 C6.33485998,7.97829645 6.35121455,7.98296918 6.36777521,7.9868 C6.38393154,7.99094851 6.40028532,7.99428601 6.41677521,7.9968 C6.43575976,7.99788377 6.45479067,7.99788377 6.47377521,7.9968 L17.5226752,7.9968 C17.5724812,7.99581048 17.6218598,7.9873841 17.6691752,7.9718 C17.6851341,7.96659271 17.7008206,7.9605851 17.7161752,7.9538 C17.8240841,7.90668772 17.9119071,7.82300798 17.9641752,7.7175 C17.9712991,7.70216465 17.9776406,7.68647783 17.9831752,7.6705 C17.9892835,7.65510793 17.9946234,7.63942193 17.9991752,7.6235 C18.0033237,7.60734368 18.0066612,7.5909899 18.0091752,7.5745 C18.0133903,7.55768483 18.0167282,7.54066184 18.0191752,7.5235 C18.0199759,7.50717648 18.0199759,7.49082352 18.0191752,7.4745 C18.0168963,7.42449034 18.0071207,7.37510638 17.9901752,7.328 C17.9795161,7.2967189 17.9657823,7.26657149 17.9491752,7.238 C17.9055274,7.16599705 17.8444047,7.10618144 17.7714752,7.0641 C17.7138692,7.03047489 17.6501182,7.00871453 17.5839752,7.0001 C17.5649907,6.99901623 17.5459598,6.99901623 17.5269752,7.0001 L6.47807521,7.0001 L6.48077521,7 Z M5.49447521,9 C5.21834427,9.00002759 4.99450281,9.22386906 4.99447521,9.5 L4.99447521,18.5 C4.99450281,18.7761309 5.21834427,18.9999724 5.49447521,19 L18.4944752,19 C18.7706062,18.9999724 18.9944476,18.7761309 18.9944752,18.5 L18.9944752,9.5 C18.9944476,9.22386906 18.7706062,9.00002759 18.4944752,9 L5.49447521,9 L5.49447521,9 Z M5.99447521,10 L17.9944752,10 L17.9944752,18 L5.99447521,18 L5.99447521,10 L5.99447521,10 Z" id="rect34176" fill="#595959"></path>
    </g>
</svg>