<svg xmlns="http://www.w3.org/2000/svg" width="24" height="24" viewBox="0 0 24 24">
  <path fill="#303030" d="M5,4 L5,19 L12,19 L12,4 L5,4 Z M4,3 L13,3 L13,20 L4,20 L4,3 Z M13,4 L13,19 L20,19 L20,4 L13,4 Z M12,3 L21,3 L21,20 L12,20 L12,3 Z M7,7 L10,7 L10,8 L7,8 L7,7 Z M7,9 L10,9 L10,10 L7,10 L7,9 Z M7,11 L10,11 L10,12 L7,12 L7,11 Z M7,13 L10,13 L10,14 L7,14 L7,13 Z M7,15 L10,15 L10,16 L7,16 L7,15 Z M15,7 L18,7 L18,8 L15,8 L15,7 Z M15,9 L18,9 L18,10 L15,10 L15,9 Z M15,11 L18,11 L18,12 L15,12 L15,11 Z M15,13 L18,13 L18,14 L15,14 L15,13 Z M15,15 L18,15 L18,16 L15,16 L15,15 Z"/>
</svg>
