<?xml version="1.0" encoding="UTF-8" standalone="no"?>
<svg width="24px" height="24px" viewBox="0 0 24 24" version="1.1" xmlns="http://www.w3.org/2000/svg" xmlns:xlink="http://www.w3.org/1999/xlink">
    <!-- Generator: Sketch 3.8.3 (29802) - http://www.bohemiancoding.com/sketch -->
    <title>图片管理-24px</title>
    <desc>Created with Sketch.</desc>
    <defs></defs>
    <g id="Page-1" stroke="none" stroke-width="1" fill="none" fill-rule="evenodd">
        <g id="图片管理-24px" fill="#B5B5B6">
            <path d="M12.0739966,18.9962013 C8.63387126,18.9976261 3,19 3,19 C2.5,18.9951544 2,18.5 2,18 L2,4 C2,3.5 2.5,3 3,3 L20,3 C20.5,3 21,3.5 21,4 L21,9.61830645 C20.6976922,9.7694358 20.4448959,9.89708964 20.4461875,9.90071923 L19.8494535,8.22641509 L16.5272949,8.22641509 C16.5272949,8.22641509 16.2269705,9.11466317 16.0700705,9.58917254 L15.2149824,9.5179152 L14.3734388,9.1180185 L14.3599064,9.13155094 C13.9027198,8.90198004 13.3316644,8.69358087 13.1143991,8.94342954 L9.92403523,13.5350825 C9.85901085,13.6286672 9.73581272,13.6446543 9.65089517,13.5725158 L7.82584296,12.0221101 C7.82584296,12.0221101 7.30161754,11.3594755 6.77739219,12.175021 C6.25316684,12.7866957 3.5,16 3.5,16 C3,16.5 3.5,17 4,17 L11.2883911,17 L12.8056045,17.5396274 C12.7979483,17.536903 12.2456376,18.6498825 12.0739966,18.9962013 Z M6.98113208,10.0566038 C8.35663372,10.0566038 9.47169811,8.94153938 9.47169811,7.56603774 C9.47169811,6.19053609 8.35663372,5.0754717 6.98113208,5.0754717 C5.60563043,5.0754717 4.49056604,6.19053609 4.49056604,7.56603774 C4.49056604,8.94153938 5.60563043,10.0566038 6.98113208,10.0566038 Z M24,16.0656101 L24,14.5004277 L23.1544528,14.1996918 C22.8319245,14.0849182 22.5723522,13.8389057 22.4415975,13.522673 L22.4415975,13.5221887 C22.3098742,13.2049874 22.3190755,12.8471069 22.4667799,12.5376541 L22.8517799,11.7274591 L21.7452075,10.6208868 L20.9350126,11.0058868 C20.6250755,11.1531069 20.267195,11.1623082 19.950478,11.0310692 L19.9499937,11.0310692 C19.633761,10.8998302 19.3877484,10.6407421 19.2729748,10.3182138 L18.9712704,9.47169811 L17.4060881,9.47169811 L17.1053522,10.3172453 C16.9905786,10.6397736 16.744566,10.8993459 16.4283333,11.0301006 L16.4278491,11.0301006 C16.1106478,11.1618239 15.7527673,11.1521384 15.4428302,11.0049182 L14.6326352,10.6199182 L13.5260629,11.7264906 L13.9110629,12.5366855 C14.058283,12.8466226 14.0674843,13.2045031 13.9362453,13.5217044 L13.9362453,13.5221887 C13.8050063,13.8384214 13.5459182,14.084434 13.2233899,14.1992075 L12.3773585,14.5004277 L12.3773585,16.0656101 L13.2229057,16.3663459 C13.545434,16.4811195 13.8050063,16.7271321 13.935761,17.0433648 L13.935761,17.0438491 C14.067,17.3610503 14.0577987,17.7184465 13.9105786,18.0283836 L13.5255786,18.8385786 L14.6321509,19.9451509 L15.4423459,19.5601509 C15.752283,19.4129308 16.1101635,19.4037296 16.4273648,19.5349686 L16.4278491,19.5349686 C16.7440818,19.6662075 16.9900943,19.9252956 17.1048679,20.2478239 L17.4060881,21.0943396 L18.9712704,21.0943396 L19.2700692,20.2541195 C19.3858113,19.9286855 19.6342453,19.6666918 19.9533836,19.534 L19.9538679,19.534 C20.2676792,19.4032453 20.6226541,19.4124465 20.9296855,19.5582138 L21.7452075,19.9456352 L22.8517799,18.8390629 L22.4662956,18.0283836 C22.3190755,17.7189308 22.3098742,17.3610503 22.4411132,17.0443333 L22.4411132,17.0438491 C22.5723522,16.7271321 22.8319245,16.4811195 23.1549371,16.3663459 L24,16.0656101 Z M18.1886792,17.4143208 C17.0114025,17.4143208 16.0573774,16.4602956 16.0573774,15.2830189 C16.0573774,14.1057421 17.0114025,13.151717 18.1886792,13.151717 C19.3654717,13.151717 20.3199811,14.1057421 20.3199811,15.2830189 C20.3199811,16.4602956 19.3654717,17.4143208 18.1886792,17.4143208 Z" id="Combined-Shape"></path>
        </g>
    </g>
</svg>