<?xml version="1.0" encoding="UTF-8"?>
<svg width="48px" height="39px" viewBox="0 0 48 39" version="1.1" xmlns="http://www.w3.org/2000/svg" xmlns:xlink="http://www.w3.org/1999/xlink">
    <!-- Generator: Sketch 47 (45396) - http://www.bohemiancoding.com/sketch -->
    <title>adapt_screen_normal copy</title>
    <desc>Created with Sketch.</desc>
    <defs></defs>
    <g id="Page-1" stroke="none" stroke-width="1" fill="none" fill-rule="evenodd">
        <g id="图标" transform="translate(-139.000000, -313.000000)">
            <g id="normal" transform="translate(91.000000, 312.000000)">
                <g id="适合窗口" transform="translate(48.000000, 0.000000)">
                    <rect id="Rectangle-175" stroke="#FFFFFF" fill="#000000" opacity="0" transform="translate(24.000000, 20.000000) scale(-1, 1) translate(-24.000000, -20.000000) " x="0" y="0" width="48" height="40"></rect>
                    <path d="M17,13 C17.3674037,13.0000338 17.2402495,13.05273 17,13 C17.05273,13.2402495 17.0000338,13.3674037 17,14 L17,27 C17.0000603,26.6325617 17.0527545,26.759675 17,27 C17.2402331,26.9472067 17.3673893,26.9999397 17,27 L30,27 C30.6326107,26.9999397 30.7597669,26.9472067 31,27 C30.9472455,26.759675 30.9999397,26.6325617 31,27 L31,14 C30.9999662,13.3674037 30.94727,13.2402495 31,13 C30.7597505,13.05273 30.6325963,13.0000338 31,13 L18,13 L17,13 Z M18,14 L30,14 L30,26 L18,26 L18,14 L18,14 Z M26,15 C25.2289445,15.0141128 24.9864917,15.2797887 25,16 C25.0146773,15.907019 25.2799791,16.1498138 26,16 L28,16 L28,18 C27.8436681,18.624939 27.9494056,18.8156112 28,19 C28.299924,19.0245582 28.5177066,19.0267391 29,19 C28.8723275,18.8248535 28.9818516,18.6363369 29,18 L29,16 C29.001157,15.2792769 28.7483303,15.0241109 28,15 L26,15 L26,15 C25.5806902,15.0036712 25.5613853,15.0036712 26,15 L26,15 Z M20,15 C19.2553843,15.0000888 19.0000888,15.2553843 19,16 L19,18 C18.9971479,18.6272726 19.105198,18.8185646 19,19 C19.4604678,19.0259193 19.6801663,19.0259193 20,19 C20.0354361,18.8185646 20.1434862,18.6272726 20,18 L20,16 L22,16 C22.6272726,16.1434862 22.8185646,16.0354361 23,16 C23.0259193,15.6801663 23.0259193,15.4604678 23,15 C22.8185646,15.105198 22.6272726,14.9971479 22,15 L20,15 L20,15 Z M20,21 C19.2474018,21.0049806 18.9964513,21.2629131 19,22 L19,24 C19.0000695,24.7445164 19.2553662,24.9999112 20,25 L22,25 C22.6272708,25.0028532 22.8185637,24.8947611 23,25 C23.0259195,24.5393532 23.0259195,24.3195693 23,24 C22.8185637,23.9641614 22.6272708,23.8560693 22,24 L20,24 L20,22 C20.1423208,21.4230787 20.0817887,21.2749302 20,21 C19.8636533,21.0576136 19.7153121,20.9976726 20,21 L20,21 Z M28,21 C28.1175685,21.0026111 27.865049,21.2599883 28,22 L28,24 L26,24 C25.375477,23.8367418 25.1845933,23.9431126 25,24 C24.9754146,24.2957304 24.9732313,24.5148174 25,25 C25.1753408,24.8715623 25.3640665,24.9817424 26,25 L28,25 C28.7240564,25.0012305 28.9792269,24.7481866 29,24 L29,22 C29.0029178,21.4277505 28.9437539,21.2790567 29,21 C28.7279487,21.0599263 28.5804783,20.9988018 28,21 L28,21 Z" id="rect34584" fill="#FFFFFF" opacity="0.6"></path>
                </g>
            </g>
        </g>
    </g>
</svg>