<svg xmlns="http://www.w3.org/2000/svg" width="24" height="24" viewBox="0 0 24 24">
  <g fill="none" fill-rule="evenodd">
    <path fill="#303030" fill-rule="nonzero" d="M10.4902344,4.99609375 C13.5190344,4.99609375 16.021484,7.4706937 16.021484,10.4960938 C16.021484,11.6459938 15.632274,12.7038438 15.021484,13.5898438 L18.708984,17.277344 C18.9685603,17.5279505 19.0739628,17.8984262 18.9851818,18.2481424 C18.8964008,18.5978586 18.6270483,18.8731968 18.2793675,18.9696415 C17.9316867,19.0660862 17.5589843,18.9688505 17.302734,18.714844 L13.6152344,15.027344 C12.7279444,15.638254 11.6422344,15.996094 10.4902344,15.996094 C7.4613344,15.996094 4.99023438,13.5214938 4.99023438,10.4960938 C4.99023438,7.4706937 7.4613344,4.99609375 10.4902344,4.99609375 Z M10.4902344,5.99609383 C7.98643441,5.99609383 5.99023441,7.99512239 5.99023441,10.4960938 C5.99023441,12.9969365 7.98643441,14.9960938 10.4902344,14.9960938 C12.9940344,14.9960938 14.9902344,12.9969365 14.9902344,10.4960938 C14.9902344,7.99512239 12.9940344,5.99609383 10.4902344,5.99609383 Z"/>
    <polygon fill="#303030" fill-rule="nonzero" points="13 10 13 11 8 11 8 10"/>
  </g>
</svg>
