<?xml version="1.0" encoding="UTF-8"?>
<svg width="36px" height="36px" viewBox="0 0 36 36" version="1.1" xmlns="http://www.w3.org/2000/svg" xmlns:xlink="http://www.w3.org/1999/xlink">
    <!-- Generator: Sketch 58 (84663) - https://sketch.com -->
    <title>right_hover_dark</title>
    <desc>Created with Sketch.</desc>
    <g id="浅" stroke="none" stroke-width="1" fill="none" fill-rule="evenodd">
        <g id="按钮规范" transform="translate(-1002.000000, -165.000000)" fill="#FFFFFF">
            <g id="删除备份-4" transform="translate(995.000000, 158.000000)">
                <g id="Combined-Shape-5" transform="translate(7.000000, 7.000000)">
                    <path d="M23.197258,12.7760719 L21.3846068,14.5714564 L26,14.5714564 L26,10.0000279 L24.1823154,11.8003979 C22.7575233,10.6474744 20.9682152,10 19.0769382,10 C14.6161684,10 11,13.581722 11,18 C11,22.418278 14.6161684,26 19.0769382,26 C20.5923786,26 22.0479001,25.5853021 23.3107027,24.8140656 C23.6361579,24.6152991 23.7373097,24.1928465 23.5366315,23.8704915 C23.3359534,23.5481365 22.909438,23.4479482 22.5839828,23.6467148 C21.5381047,24.2854681 20.3338683,24.6285714 19.0769382,24.6285714 C15.3808718,24.6285714 12.384618,21.6608589 12.384618,18 C12.384618,14.3391411 15.3808718,11.3714286 19.0769382,11.3714286 C20.5968244,11.3714286 22.0351006,11.8748703 23.197258,12.7760719 L23.197258,12.7760719 Z M19.0769102,19.1428849 C18.4396574,19.1428849 17.9230619,18.6312104 17.9230619,18.0000278 C17.9230619,17.3688452 18.4396574,16.8571707 19.0769102,16.8571707 C19.714163,16.8571707 20.2307585,17.3688452 20.2307585,18.0000278 C20.2307585,18.6312104 19.714163,19.1428849 19.0769102,19.1428849 L19.0769102,19.1428849 Z" id="Combined-Shape"></path>
                </g>
            </g>
        </g>
    </g>
</svg>