<?xml version="1.0" encoding="UTF-8"?>
<svg width="53px" height="53px" viewBox="0 0 53 53" version="1.1" xmlns="http://www.w3.org/2000/svg" xmlns:xlink="http://www.w3.org/1999/xlink">
    <!-- Generator: Sketch 47 (45396) - http://www.bohemiancoding.com/sketch -->
    <title>previous_hover</title>
    <desc>Created with Sketch.</desc>
    <defs>
        <rect id="path-1" x="9" y="4" width="35" height="35" rx="4"></rect>
        <filter x="-44.3%" y="-30.0%" width="188.6%" height="188.6%" filterUnits="objectBoundingBox" id="filter-2">
            <feMorphology radius="1" operator="dilate" in="SourceAlpha" result="shadowSpreadOuter1"></feMorphology>
            <feOffset dx="0" dy="5" in="shadowSpreadOuter1" result="shadowOffsetOuter1"></feOffset>
            <feGaussianBlur stdDeviation="4" in="shadowOffsetOuter1" result="shadowBlurOuter1"></feGaussianBlur>
            <feComposite in="shadowBlurOuter1" in2="SourceAlpha" operator="out" result="shadowBlurOuter1"></feComposite>
            <feColorMatrix values="0 0 0 0 0   0 0 0 0 0   0 0 0 0 0  0 0 0 0.2 0" type="matrix" in="shadowBlurOuter1"></feColorMatrix>
        </filter>
    </defs>
    <g id="Page-1" stroke="none" stroke-width="1" fill="none" fill-rule="evenodd">
        <g id="图标" transform="translate(-209.000000, -82.000000)">
            <g id="Group-Copy-8" transform="translate(209.000000, 82.000000)">
                <g id="Rectangle-2">
                    <use fill="black" fill-opacity="1" filter="url(#filter-2)" xlink:href="#path-1"></use>
                    <use fill-opacity="0.4" fill="#000000" fill-rule="evenodd" xlink:href="#path-1"></use>
                    <rect stroke-opacity="0.2" stroke="#FFFFFF" stroke-width="1" x="8.5" y="3.5" width="36" height="36" rx="4"></rect>
                </g>
                <g id="Group-3" transform="translate(22.000000, 14.000000)" fill="#FFFFFF">
                    <path d="M0.474212112,0.00083054291 C0.271031682,0.0118482797 0.094789185,0.144883383 0.0285097411,0.337265069 C-0.0377697028,0.529646755 0.0191330977,0.743005203 0.172412112,0.876830543 L7.25931211,7.25463054 L0.172412112,13.6326305 C0.0359184294,13.7510215 -0.0260915421,13.9338375 0.0102071626,14.1108385 C0.0465058672,14.2878395 0.175466769,14.4314919 0.347541563,14.4866027 C0.519616357,14.5417136 0.708037788,14.4997101 0.840412112,14.3767305 L8.34041211,7.62673054 C8.44602509,7.5318878 8.50635314,7.39662859 8.50635314,7.25468054 C8.50635314,7.1127325 8.44602509,6.97747329 8.34041211,6.88263054 L0.840412112,0.132630543 C0.741168658,0.0410113065 0.609082925,-0.00656408458 0.474212112,0.000730542909 L0.474212112,0.00083054291 Z" id="polyline34476" transform="translate(4.253177, 7.255221) scale(-1, 1) translate(-4.253177, -7.255221) "></path>
                </g>
            </g>
        </g>
    </g>
</svg>