<?xml version="1.0" encoding="UTF-8" standalone="no"?>
<svg width="48px" height="48px" viewBox="0 0 48 48" version="1.1" xmlns="http://www.w3.org/2000/svg" xmlns:xlink="http://www.w3.org/1999/xlink">
    <!-- Generator: Sketch 3.7.1 (28215) - http://www.bohemiancoding.com/sketch -->
    <title>Artboard 5</title>
    <desc>Created with Sketch.</desc>
    <defs>
        <filter x="-50%" y="-50%" width="200%" height="200%" filterUnits="objectBoundingBox" id="filter-1">
            <feOffset dx="0" dy="1" in="SourceAlpha" result="shadowOffsetOuter1"></feOffset>
            <feGaussianBlur stdDeviation="0.5" in="shadowOffsetOuter1" result="shadowBlurOuter1"></feGaussianBlur>
            <feColorMatrix values="0 0 0 0 0   0 0 0 0 0   0 0 0 0 0  0 0 0 0.3 0" type="matrix" in="shadowBlurOuter1" result="shadowMatrixOuter1"></feColorMatrix>
            <feMerge>
                <feMergeNode in="shadowMatrixOuter1"></feMergeNode>
                <feMergeNode in="SourceGraphic"></feMergeNode>
            </feMerge>
        </filter>
    </defs>
    <g id="Page-1" stroke="none" stroke-width="1" fill="none" fill-rule="evenodd">
        <g id="Artboard-5">
            <g id="Group-18" transform="translate(3.000000, 3.000000)">
                <g id="Group-16" filter="url(#filter-1)">
                    <path d="M21,42 C32.5979797,42 42,32.5979797 42,21 C42,9.40202025 32.5979797,0 21,0 C9.40202025,0 0,9.40202025 0,21 C0,32.5979797 9.40202025,42 21,42 Z" id="Oval-192" fill="#FFFFFF"></path>
                    <path d="M2,21.0124503 C2,16.1400028 3.85797909,11.2675552 7.57393728,7.55000305 L21.0306122,21.0124503 L2,21.0124503 L2,21.0124503 Z" id="Combined-Shape" fill="#FFCF3D"></path>
                    <path d="M40,21 C40,25.8724476 38.1450096,30.7448951 34.4350288,34.4624473 L21,21 L40,21 L40,21 Z" id="Combined-Shape" fill="#AF27C3"></path>
                    <path d="M21,40 C25.8604391,40 30.7208783,38.1450096 34.4292683,34.4350288 L21,21 L21,40 L21,40 Z" id="Combined-Shape" fill="#CE1253"></path>
                    <path d="M20.9862406,2 C25.8665588,2 30.7468771,3.85499039 34.4704343,7.56497116 L20.9862406,21 L20.9862406,2 L20.9862406,2" id="Combined-Shape" fill="#4D98D5"></path>
                    <path d="M40,20.9987772 C40,16.1127383 38.1450096,11.2266993 34.4350288,7.49877722 L21,20.9987772 L40,20.9987772 L40,20.9987772" id="Combined-Shape" fill="#7326D0"></path>
                    <path d="M21.0066628,40 C16.1363044,40 11.265946,38.1450096 7.54998779,34.4350288 L21.0066628,21 L21.0066628,40 L21.0066628,40" id="Combined-Shape" fill="#DF4D42"></path>
                    <path d="M2,20.9937076 C2,25.8583174 3.85499039,30.7229273 7.56497116,34.4344995 L21,20.9937076 L2,20.9937076 L2,20.9937076" id="Combined-Shape" fill="#FDA625"></path>
                    <path d="M21.0204221,2 C16.1401039,2 11.2597857,3.85499039 7.53622841,7.56497116 L21.0204221,21 L21.0204221,2 L21.0204221,2 Z" id="Combined-Shape" fill="#71BB74"></path>
                </g>
                <path d="M21,38 C30.3888407,38 38,30.3888407 38,21 C38,11.6111593 30.3888407,4 21,4 C11.6111593,4 4,11.6111593 4,21 C4,30.3888407 11.6111593,38 21,38 Z M7.58131559,21.7434479 C7.19399238,21.3561246 7.20195454,20.7201875 7.58131559,20.3408264 L13.9510727,13.9710693 C17.8563156,10.0658264 24.1871067,10.0649678 28.0932083,13.9710693 L34.4629654,20.3408264 C34.8502886,20.7281497 34.8423265,21.3640868 34.4629654,21.7434479 L28.0932083,28.113205 C24.1879654,32.0184479 17.8571743,32.0193065 13.9510727,28.113205 L7.58131559,21.7434479 Z" id="Combined-Shape" fill="#FFFFFF"></path>
            </g>
        </g>
    </g>
</svg>