<svg xmlns="http://www.w3.org/2000/svg" width="24" height="24" viewBox="0 0 24 24">
  <g fill="none" fill-rule="evenodd">
    <path fill="#303030" fill-rule="nonzero" d="M4,6 L4,18 L20,18 L20,10.4339276 L15.1918393,6 L4,6 Z M3,5 L15.5825398,5 L21,9.99580345 L21,19 L3,19 L3,5 Z" transform="rotate(90 12 12)"/>
    <rect width="2" height="1" x="6" y="6" fill="#303030"/>
    <rect width="1" height="1" x="6" y="8" fill="#303030"/>
    <rect width="1" height="1" x="6" y="10" fill="#303030"/>
    <rect width="1" height="1" x="6" y="12" fill="#303030"/>
    <rect width="2" height="1" x="6" y="14" fill="#303030"/>
    <rect width="1" height="1" x="6" y="16" fill="#303030"/>
    <rect width="1" height="1" x="6" y="18" fill="#303030"/>
    <polygon fill="#303030" points="18 7 9 7 9 20 8 20 8 6 18 6"/>
    <path fill="#303030" d="M8,4 L9,4 L9,6 L8,6 L8,4 Z M10,4 L11,4 L11,5 L10,5 L10,4 Z M12,4 L13,4 L13,5 L12,5 L12,4 Z M14,4 L15,4 L15,5 L14,5 L14,4 Z M16,4 L17,4 L17,5 L16,5 L16,4 Z"/>
  </g>
</svg>
