<svg xmlns="http://www.w3.org/2000/svg" width="24" height="24" viewBox="0 0 24 24">
  <path fill="#303030" d="M13,11 L20,11 L20,12 L13,12 L13,20 L4,20 L4,3 L13,3 L13,11 Z M12,12 L5,12 L5,11 L12,11 L12,3 L21,3 L21,20 L12,20 L12,12 Z M5,4 L5,19 L12,19 L12,4 L5,4 Z M13,4 L13,19 L20,19 L20,4 L13,4 Z M7,6 L10,6 L10,7 L7,7 L7,6 Z M7,8 L10,8 L10,9 L7,9 L7,8 Z M7,14 L10,14 L10,15 L7,15 L7,14 Z M7,16 L10,16 L10,17 L7,17 L7,16 Z M15,6 L18,6 L18,7 L15,7 L15,6 Z M15,8 L18,8 L18,9 L15,9 L15,8 Z M15,14 L18,14 L18,15 L15,15 L15,14 Z M15,16 L18,16 L18,17 L15,17 L15,16 Z"/>
</svg>
