<?xml version="1.0" encoding="UTF-8"?>
<svg width="280px" height="280px" viewBox="0 0 280 280" version="1.1" xmlns="http://www.w3.org/2000/svg" xmlns:xlink="http://www.w3.org/1999/xlink">
    <!-- Generator: Sketch 47 (45396) - http://www.bohemiancoding.com/sketch -->
    <title>album_bg_press</title>
    <desc>Created with Sketch.</desc>
    <defs>
        <path d="M242,26 L259.001795,26 C262.314512,26 265,28.6796476 265,32.0005659 L265,254.999434 C265,258.313455 262.320056,261 259.001795,261 L241.704086,261 C240.832977,263.882248 238.140854,266.036708 235,266 L22,266 C18.1812182,265.937817 15,262.70262 15,259 L15,21 C15,17.2744899 18.1656102,14.0624223 22,14 L235,14 C238.818782,13.9553581 242,17.1994973 242,21 L242,26 Z" id="path-1"></path>
        <path d="M44,18.0005659 C44,14.6865449 46.6799435,12 49.9982047,12 L244.001795,12 C247.314512,12 250,14.6796476 250,18.0005659 L250,240.999434 C250,244.313455 247.320056,247 244.001795,247 L49.9982047,247 C46.6854877,247 44,244.320352 44,240.999434 L44,18.0005659 Z" id="path-2"></path>
        <polygon id="path-3" points="226 18 242 18 242 242 226 242"></polygon>
        <filter x="-75.0%" y="-7.1%" width="300.0%" height="114.3%" filterUnits="objectBoundingBox" id="filter-4">
            <feMorphology radius="2" operator="dilate" in="SourceAlpha" result="shadowSpreadOuter1"></feMorphology>
            <feOffset dx="4" dy="0" in="shadowSpreadOuter1" result="shadowOffsetOuter1"></feOffset>
            <feGaussianBlur stdDeviation="4" in="shadowOffsetOuter1" result="shadowBlurOuter1"></feGaussianBlur>
            <feComposite in="shadowBlurOuter1" in2="SourceAlpha" operator="out" result="shadowBlurOuter1"></feComposite>
            <feColorMatrix values="0 0 0 0 0   0 0 0 0 0   0 0 0 0 0  0 0 0 0.1 0" type="matrix" in="shadowBlurOuter1"></feColorMatrix>
        </filter>
        <path d="M233.623094,17.2115385 L233.623094,240.147778" id="path-5"></path>
        <filter x="-44.2%" y="-1.4%" width="243.5%" height="102.8%" filterUnits="objectBoundingBox" id="filter-6">
            <feMorphology radius="1.2" operator="dilate" in="SourceAlpha" result="shadowSpreadOuter1"></feMorphology>
            <feOffset dx="4" dy="0" in="shadowSpreadOuter1" result="shadowOffsetOuter1"></feOffset>
            <feMorphology radius="1.2" operator="erode" in="SourceAlpha" result="shadowInner"></feMorphology>
            <feOffset dx="4" dy="0" in="shadowInner" result="shadowInner"></feOffset>
            <feComposite in="shadowOffsetOuter1" in2="shadowInner" operator="out" result="shadowOffsetOuter1"></feComposite>
            <feColorMatrix values="0 0 0 0 0   0 0 0 0 0   0 0 0 0 0  0 0 0 0.1 0" type="matrix" in="shadowOffsetOuter1"></feColorMatrix>
        </filter>
        <path d="M237.623094,17.2115385 L237.623094,240.147778" id="path-7"></path>
        <filter x="-44.2%" y="-1.4%" width="243.5%" height="102.8%" filterUnits="objectBoundingBox" id="filter-8">
            <feMorphology radius="1.2" operator="dilate" in="SourceAlpha" result="shadowSpreadOuter1"></feMorphology>
            <feOffset dx="4" dy="0" in="shadowSpreadOuter1" result="shadowOffsetOuter1"></feOffset>
            <feMorphology radius="1.2" operator="erode" in="SourceAlpha" result="shadowInner"></feMorphology>
            <feOffset dx="4" dy="0" in="shadowInner" result="shadowInner"></feOffset>
            <feComposite in="shadowOffsetOuter1" in2="shadowInner" operator="out" result="shadowOffsetOuter1"></feComposite>
            <feColorMatrix values="0 0 0 0 0   0 0 0 0 0   0 0 0 0 0  0 0 0 0.08 0" type="matrix" in="shadowOffsetOuter1"></feColorMatrix>
        </filter>
        <path d="M220,0 C223.818782,-0.0446418716 227,3.19949728 227,7 L227,245 C227,248.823954 223.83439,252.044814 220,252 L7,252 C3.18121824,251.937817 0,248.70262 0,245 L0,7 C0,3.27448991 3.16561024,0.0624222654 7,0 L220,0 Z" id="path-9"></path>
        <filter x="-2.6%" y="-4.0%" width="108.8%" height="107.9%" filterUnits="objectBoundingBox" id="filter-10">
            <feMorphology radius="2" operator="dilate" in="SourceAlpha" result="shadowSpreadOuter1"></feMorphology>
            <feOffset dx="4" dy="0" in="shadowSpreadOuter1" result="shadowOffsetOuter1"></feOffset>
            <feGaussianBlur stdDeviation="2" in="shadowOffsetOuter1" result="shadowBlurOuter1"></feGaussianBlur>
            <feComposite in="shadowBlurOuter1" in2="SourceAlpha" operator="out" result="shadowBlurOuter1"></feComposite>
            <feColorMatrix values="0 0 0 0 0   0 0 0 0 0   0 0 0 0 0  0 0 0 0.1 0" type="matrix" in="shadowBlurOuter1"></feColorMatrix>
        </filter>
        <filter x="-1.8%" y="-3.2%" width="107.0%" height="106.3%" filterUnits="objectBoundingBox" id="filter-11">
            <feGaussianBlur stdDeviation="1" in="SourceAlpha" result="shadowBlurInner1"></feGaussianBlur>
            <feOffset dx="0" dy="2" in="shadowBlurInner1" result="shadowOffsetInner1"></feOffset>
            <feComposite in="shadowOffsetInner1" in2="SourceAlpha" operator="arithmetic" k2="-1" k3="1" result="shadowInnerInner1"></feComposite>
            <feColorMatrix values="0 0 0 0 1   0 0 0 0 1   0 0 0 0 1  0 0 0 1 0" type="matrix" in="shadowInnerInner1" result="shadowMatrixInner1"></feColorMatrix>
            <feOffset dx="0" dy="2" in="SourceAlpha" result="shadowOffsetInner2"></feOffset>
            <feComposite in="shadowOffsetInner2" in2="SourceAlpha" operator="arithmetic" k2="-1" k3="1" result="shadowInnerInner2"></feComposite>
            <feColorMatrix values="0 0 0 0 1   0 0 0 0 1   0 0 0 0 1  0 0 0 0.1 0" type="matrix" in="shadowInnerInner2" result="shadowMatrixInner2"></feColorMatrix>
            <feMerge>
                <feMergeNode in="shadowMatrixInner1"></feMergeNode>
                <feMergeNode in="shadowMatrixInner2"></feMergeNode>
            </feMerge>
        </filter>
        <rect id="path-12" x="0" y="0" width="203" height="202"></rect>
        <polygon id="path-14" points="145.003755 79.2307276 203 164.125 86.6979167 164.125"></polygon>
        <filter x="-5.2%" y="-7.1%" width="115.5%" height="121.2%" filterUnits="objectBoundingBox" id="filter-15">
            <feOffset dx="3" dy="3" in="SourceAlpha" result="shadowOffsetOuter1"></feOffset>
            <feGaussianBlur stdDeviation="2.5" in="shadowOffsetOuter1" result="shadowBlurOuter1"></feGaussianBlur>
            <feComposite in="shadowBlurOuter1" in2="SourceAlpha" operator="out" result="shadowBlurOuter1"></feComposite>
            <feColorMatrix values="0 0 0 0 0   0 0 0 0 0   0 0 0 0 0  0 0 0 0.08 0" type="matrix" in="shadowBlurOuter1"></feColorMatrix>
        </filter>
        <polygon id="path-16" points="75.3464057 42.2309529 0 164.125 151.191315 164.125"></polygon>
        <filter x="-4.0%" y="-4.9%" width="111.9%" height="114.8%" filterUnits="objectBoundingBox" id="filter-17">
            <feOffset dx="3" dy="3" in="SourceAlpha" result="shadowOffsetOuter1"></feOffset>
            <feGaussianBlur stdDeviation="2.5" in="shadowOffsetOuter1" result="shadowBlurOuter1"></feGaussianBlur>
            <feComposite in="shadowBlurOuter1" in2="SourceAlpha" operator="out" result="shadowBlurOuter1"></feComposite>
            <feColorMatrix values="0 0 0 0 0   0 0 0 0 0   0 0 0 0 0  0 0 0 0.15 0" type="matrix" in="shadowBlurOuter1"></feColorMatrix>
        </filter>
        <linearGradient x1="50%" y1="0%" x2="50%" y2="97.7399554%" id="linearGradient-18">
            <stop stop-color="#949494" offset="0%"></stop>
            <stop stop-color="#878787" offset="100%"></stop>
        </linearGradient>
    </defs>
    <g id="Page-1" stroke="none" stroke-width="1" fill="none" fill-rule="evenodd">
        <g id="图标按钮" transform="translate(-64.000000, -329.000000)">
            <g id="normal-copy" transform="translate(64.000000, 329.000000)">
                <g id="Combined-Shape">
                    <path stroke="#2CA7F8" stroke-width="11" d="M247.489927,20.5 L259.001795,20.5 C265.353968,20.5 270.5,25.6439701 270.5,32.0005659 L270.5,254.999434 C270.5,261.351668 265.356979,266.5 259.001795,266.5 L244.99072,266.5 C242.673886,269.592561 239.00015,271.547024 235,271.5 L21.9104525,271.499271 C15.1215507,271.388724 9.5,265.737369 9.5,259 L9.5,21 C9.5,14.241396 15.1042532,8.61153111 22,8.5 L234.935709,8.50037577 C241.650178,8.42188308 247.222148,13.8616138 247.489927,20.5 Z"></path>
                    <path stroke="#FFFFFF" stroke-width="5" d="M244.5,23.5 L259.001795,23.5 C263.697383,23.5 267.5,27.3010935 267.5,32.0005659 L267.5,254.999434 C267.5,259.695506 263.699432,263.5 259.001795,263.5 L243.357895,263.5 C241.720769,266.532703 238.5252,268.541344 235,268.5 L21.9592966,268.499669 C16.8006943,268.415668 12.5,264.092173 12.5,259 L12.5,21 C12.5,15.8870862 16.7829123,11.5846008 22,11.5 L234.970777,11.5001708 C240.170481,11.4393858 244.5,15.7956622 244.5,21 L244.5,23.5 Z"></path>
                </g>
                <g id="相册封面" transform="translate(15.000000, 14.000000)">
                    <g id="Rectangle-996">
                        <use fill="#FFFFFF" fill-rule="evenodd" xlink:href="#path-2"></use>
                        <path stroke-opacity="0.05" stroke="#000000" stroke-width="2" d="M45,18.0005659 L45,240.999434 C45,243.765596 47.2352997,246 49.9982047,246 L244.001795,246 C246.765626,246 249,243.763318 249,240.999434 L249,18.0005659 C249,15.2344042 246.7647,13 244.001795,13 L49.9982047,13 C47.2343743,13 45,15.2366819 45,18.0005659 Z"></path>
                    </g>
                    <g id="Rectangle-1031">
                        <use fill="black" fill-opacity="1" filter="url(#filter-4)" xlink:href="#path-3"></use>
                        <use fill-opacity="0" fill="#D8D8D8" fill-rule="evenodd" xlink:href="#path-3"></use>
                        <path stroke-opacity="0.05" stroke="#000000" stroke-width="2" d="M225,17 L243,17 L243,243 L225,243 L225,17 Z"></path>
                    </g>
                    <g id="Line">
                        <use fill="black" fill-opacity="1" filter="url(#filter-6)" xlink:href="#path-5"></use>
                        <use stroke="#D9D9D9" stroke-width="2.4" xlink:href="#path-5"></use>
                    </g>
                    <g id="Line">
                        <use fill="black" fill-opacity="1" filter="url(#filter-8)" xlink:href="#path-7"></use>
                        <use stroke="#D9D9D9" stroke-width="2.4" xlink:href="#path-7"></use>
                    </g>
                    <g id="Rectangle-996">
                        <use fill="black" fill-opacity="1" filter="url(#filter-10)" xlink:href="#path-9"></use>
                        <use fill="#F9F9F9" fill-rule="evenodd" xlink:href="#path-9"></use>
                        <use fill="black" fill-opacity="1" filter="url(#filter-11)" xlink:href="#path-9"></use>
                        <path stroke-opacity="0.1" stroke="#000000" stroke-width="2" d="M219.994359,-1 C224.35009,-1.04748037 228,2.6270091 228,7 L228,245 C228,249.396021 224.364699,253.05108 220,253 L6.98371864,252.999867 C2.64026605,252.929141 -1,249.269575 -1,245 L-1,7 C-1,2.70993132 2.6222419,-0.928864428 7,-1 L219.994359,-1 Z"></path>
                    </g>
                </g>
                <g id="缩略图加载.192*192" transform="translate(27.000000, 26.000000)">
                    <mask id="mask-13" fill="white">
                        <use xlink:href="#path-12"></use>
                    </mask>
                    <use id="pic-43" fill="#F2F2F2" xlink:href="#path-12"></use>
                    <g id="Group" mask="url(#mask-13)">
                        <g transform="translate(0.000000, 37.875000)">
                            <g id="Path-1696" fill="none">
                                <use fill="black" fill-opacity="1" filter="url(#filter-15)" xlink:href="#path-14"></use>
                                <use fill-opacity="0.15" fill="#202020" fill-rule="evenodd" xlink:href="#path-14"></use>
                            </g>
                            <g id="Path-1695" fill="none">
                                <use fill="black" fill-opacity="1" filter="url(#filter-17)" xlink:href="#path-16"></use>
                                <use fill-opacity="0.1" fill="#232323" fill-rule="evenodd" xlink:href="#path-16"></use>
                            </g>
                            <ellipse id="Oval-79" fill-opacity="0.3" fill="url(#linearGradient-18)" fill-rule="evenodd" cx="163.475679" cy="17.8854167" rx="17.9739583" ry="17.8854167"></ellipse>
                        </g>
                    </g>
                    <rect id="pic-43-copy" stroke-opacity="0.1" stroke="#000000" stroke-width="2" mask="url(#mask-13)" x="1" y="1" width="201" height="200"></rect>
                </g>
            </g>
        </g>
    </g>
</svg>