<?xml version="1.0" encoding="UTF-8"?>
<svg width="60px" height="60px" viewBox="0 0 60 60" version="1.1" xmlns="http://www.w3.org/2000/svg" xmlns:xlink="http://www.w3.org/1999/xlink">
    <!-- Generator: Sketch 58 (84663) - https://sketch.com -->
    <title>58</title>
    <desc>Created with Sketch.</desc>
    <g id="浅" stroke="none" stroke-width="1" fill="none" fill-rule="evenodd">
        <g id="画板" transform="translate(-123.000000, -15.000000)" fill-rule="nonzero">
            <g id="58" transform="translate(123.000000, 15.000000)">
                <rect id="Rectangle-90" stroke-opacity="0.1" stroke="#000000" fill-opacity="0.8" fill="#FFFFFF" x="0.5" y="0.5" width="59" height="59" rx="4"></rect>
                <path d="M36.5714286,23 C37.9126915,23 39,24.0446689 39,25.3333333 L39,34.6666667 C39,35.9553311 37.9126915,37 36.5714286,37 L24.4285714,37 C23.0873085,37 22,35.9553311 22,34.6666667 L22,25.3333333 C22,24.0446689 23.0873085,23 24.4285714,23 L36.5714286,23 Z M31.9090053,29.2226524 L30.1364497,32.0443009 C29.9783466,32.2959779 29.6907082,32.3016397 29.5045665,32.0701011 L28.3600443,30.6464491 C28.0760743,30.4279745 27.6050836,30.4579644 27.3716616,30.7093834 L24.122199,34.2093834 C23.8149537,34.5403176 24.1224336,35 24.6510383,35 L36.3491038,35 C36.8542616,35 37.1662835,34.5760169 36.906382,34.2427546 L33.0070268,29.2427546 C32.7615634,28.9280058 32.1736501,28.9172425 31.9090053,29.2226524 Z M26,25 C24.8954305,25 24,25.8954305 24,27 C24,28.1045695 24.8954305,29 26,29 C27.1045695,29 28,28.1045695 28,27 C28,25.8954305 27.1045695,25 26,25 Z" id="形状" fill-opacity="0.25" fill="#000000"></path>
            </g>
        </g>
    </g>
</svg>