<?xml version="1.0" encoding="UTF-8"?>
<svg width="48px" height="39px" viewBox="0 0 48 39" version="1.1" xmlns="http://www.w3.org/2000/svg" xmlns:xlink="http://www.w3.org/1999/xlink">
    <!-- Generator: Sketch 47 (45396) - http://www.bohemiancoding.com/sketch -->
    <title>相册</title>
    <desc>Created with Sketch.</desc>
    <defs></defs>
    <g id="Page-1" stroke="none" stroke-width="1" fill="none" fill-rule="evenodd">
        <g id="多个属性" transform="translate(-961.000000, -201.000000)">
            <g id="顶部工具" transform="translate(913.000000, 200.000000)">
                <g id="相册选中" transform="translate(48.000000, 0.000000)">
                    <rect id="Rectangle-79-Copy" stroke="#FFFFFF" fill="#000000" opacity="0" x="0" y="0" width="48" height="40"></rect>
                    <rect id="Rectangle-79-Copy-84" fill="#2CA7F8" x="0" y="38" width="48" height="2"></rect>
                    <path d="M16,13 L16,27 L29,27 L29,13 L16,13 L16,13 Z M30.4922,14 C30.3595908,14.0020658 30.233234,14.0567273 30.140928,14.1519589 C30.0486219,14.2471905 29.9979284,14.3751909 30,14.5078 L30,25.5078 C29.9974491,25.6881185 30.0921867,25.855842 30.2479358,25.9467457 C30.4036849,26.0376493 30.5963151,26.0376493 30.7520642,25.9467457 C30.9078133,25.855842 31.0025509,25.6881185 31,25.5078 L31,14.5078 C31.0021139,14.3724861 30.9492928,14.2420933 30.8535997,14.1464003 C30.7579067,14.0507072 30.6275139,13.9978861 30.4922,14 L30.4922,14 Z M18.0078,15 L26.9961,15 L26.9961,23.0039 L18.0078,23.0039 L18.0078,15 L18.0078,15 Z M19,16 L19,22 L26,22 L26,16 L19,16 L19,16 Z" id="path34796" fill="#01BCFF"></path>
                </g>
            </g>
        </g>
    </g>
</svg>