<?xml version="1.0" encoding="UTF-8"?>
<svg width="100px" height="100px" viewBox="0 0 100 100" version="1.1" xmlns="http://www.w3.org/2000/svg" xmlns:xlink="http://www.w3.org/1999/xlink">
    <!-- Generator: Sketch 47 (45396) - http://www.bohemiancoding.com/sketch -->
    <title>收藏</title>
    <desc>Created with Sketch.</desc>
    <defs>
        <path d="M44.4,81.3695652 C23.6,62.8695652 10,50.4021739 10,35.1195652 C10,22.6521739 19.6,13 32,13 C38.8,13 45.6,19.6592518 50,24.8875126 C54.4,19.6592518 61.2,13 68,13 C80.4,13 90,22.6521739 90,35.1195652 C90,50.4021739 76.4,62.8695652 55.6,81.3695652 L50,87 L44.4,81.3695652 Z" id="path-1"></path>
        <filter x="-16.2%" y="-12.2%" width="132.5%" height="135.1%" filterUnits="objectBoundingBox" id="filter-2">
            <feMorphology radius="2" operator="dilate" in="SourceAlpha" result="shadowSpreadOuter1"></feMorphology>
            <feOffset dx="0" dy="4" in="shadowSpreadOuter1" result="shadowOffsetOuter1"></feOffset>
            <feGaussianBlur stdDeviation="3" in="shadowOffsetOuter1" result="shadowBlurOuter1"></feGaussianBlur>
            <feComposite in="shadowBlurOuter1" in2="SourceAlpha" operator="out" result="shadowBlurOuter1"></feComposite>
            <feColorMatrix values="0 0 0 0 0   0 0 0 0 0   0 0 0 0 0  0 0 0 0.1 0" type="matrix" in="shadowBlurOuter1"></feColorMatrix>
        </filter>
        <filter x="-13.8%" y="-9.5%" width="127.5%" height="129.7%" filterUnits="objectBoundingBox" id="filter-3">
            <feGaussianBlur stdDeviation="1.5" in="SourceAlpha" result="shadowBlurInner1"></feGaussianBlur>
            <feOffset dx="0" dy="3" in="shadowBlurInner1" result="shadowOffsetInner1"></feOffset>
            <feComposite in="shadowOffsetInner1" in2="SourceAlpha" operator="arithmetic" k2="-1" k3="1" result="shadowInnerInner1"></feComposite>
            <feColorMatrix values="0 0 0 0 1   0 0 0 0 1   0 0 0 0 1  0 0 0 0.1 0" type="matrix" in="shadowInnerInner1"></feColorMatrix>
        </filter>
    </defs>
    <g id="Page-1" stroke="none" stroke-width="1" fill="none" fill-rule="evenodd">
        <g id="图标按钮" transform="translate(-49.000000, -1858.000000)">
            <g id="心" transform="translate(49.000000, 1858.000000)">
                <g id="Shape-14">
                    <use fill="black" fill-opacity="1" filter="url(#filter-2)" xlink:href="#path-1"></use>
                    <use fill-opacity="0.4" fill="#FFFFFF" fill-rule="evenodd" xlink:href="#path-1"></use>
                    <use fill="black" fill-opacity="1" filter="url(#filter-3)" xlink:href="#path-1"></use>
                    <path stroke-opacity="0.1" stroke="#000000" stroke-width="2" d="M43.7125506,82.0964415 C29.6991469,69.6321788 23.7993754,63.9997106 18.6257746,57.6709534 C12.1393489,49.7362452 9,42.6589809 9,35.1195652 C9,22.1010988 19.0464983,12 32,12 C37.8968015,12 43.8964545,16.3101031 50,23.3478687 C56.1035455,16.3101031 62.1031985,12 68,12 C80.9535017,12 91,22.1010988 91,35.1195652 C91,42.6589809 87.8606511,49.7362452 81.3742254,57.6709534 C76.1978119,64.0031513 70.294438,69.6383028 56.3090205,82.0747531 L50,88.4180617 L43.7125506,82.0964415 Z"></path>
                </g>
            </g>
        </g>
    </g>
</svg>