<?xml version="1.0" encoding="UTF-8"?>
<svg width="48px" height="39px" viewBox="0 0 48 39" version="1.1" xmlns="http://www.w3.org/2000/svg" xmlns:xlink="http://www.w3.org/1999/xlink">
    <!-- Generator: Sketch 47 (45396) - http://www.bohemiancoding.com/sketch -->
    <title>timeline_normal</title>
    <desc>Created with Sketch.</desc>
    <defs></defs>
    <g id="Page-1" stroke="none" stroke-width="1" fill="none" fill-rule="evenodd">
        <g id="图标" transform="translate(-91.000000, -213.000000)">
            <g id="顶部工具" transform="translate(91.000000, 212.000000)">
                <g id="时间线-copy">
                    <rect id="Rectangle-79-Copy-84" stroke="#FFFFFF" fill="#000000" opacity="0" x="0" y="0" width="48" height="40"></rect>
                    <path d="M24.5,13 C20.3638,13 17,16.3637 17,20.5 C17,24.6362 20.3638,28 24.5,28 C28.6362,28 32,24.6362 32,20.5 C32,16.3637 28.6362,13 24.5,13 L24.5,13 Z M24.5,14 C28.0957,14 31,16.9042 31,20.5 C31,24.0957 28.0957,27 24.5,27 C20.9042,27 18,24.0957 18,20.5 C18,16.9042 20.9042,14 24.5,14 L24.5,14 Z M24.49,15.4922 C24.214607,15.4965045 23.9945442,15.7226926 23.9978,15.9981 L23.9978,20.502 C23.9977335,20.6485978 24.0619995,20.7878408 24.1736,20.8829 L27.6736,23.8829 C27.8090389,24.0013808 27.9976909,24.0379576 28.1675948,23.9786782 C28.3374988,23.9193989 28.4624521,23.7734053 28.4947916,23.5963869 C28.527131,23.4193684 28.4618691,23.2386245 28.3239,23.1231 L24.9978,20.2735 L24.9978,15.9981 C24.9993957,15.8631133 24.9463458,15.7332161 24.8507103,15.6379385 C24.7550749,15.5426609 24.6249798,15.4900983 24.49,15.4922 L24.49,15.4922 Z" id="circle34446" fill="#FFFFFF" opacity="0.6"></path>
                </g>
            </g>
        </g>
    </g>
</svg>