<?xml version="1.0" encoding="UTF-8" standalone="no"?>
<svg width="25px" height="24px" viewBox="0 0 25 24" version="1.1" xmlns="http://www.w3.org/2000/svg" xmlns:xlink="http://www.w3.org/1999/xlink">
    <!-- Generator: Sketch 3.8.3 (29802) - http://www.bohemiancoding.com/sketch -->
    <title>adapt-screen</title>
    <desc>Created with Sketch.</desc>
    <defs></defs>
    <g id="Page-1" stroke="none" stroke-width="1" fill="none" fill-rule="evenodd">
        <rect id="rect34234" x="0.976155214" y="0" width="24" height="24" rx="1.7382799e-05"></rect>
        <path d="M6.47615521,5 C6.3435589,5.00003381 6.21640469,5.05272997 6.12265521,5.1465 C6.02888518,5.24024948 5.97618903,5.36740369 5.97615521,5.5 L5.97615521,18.5 C5.97621554,18.6325617 6.02890968,18.759675 6.12265521,18.8534 C6.21638832,18.9472067 6.34354455,18.9999397 6.47615521,19 L19.4761552,19 C19.6087659,18.9999397 19.7359221,18.9472067 19.8296552,18.8534 C19.9234008,18.759675 19.9760949,18.6325617 19.9761552,18.5 L19.9761552,5.5 C19.9761214,5.36740369 19.9234252,5.24024948 19.8296552,5.1465 C19.7359057,5.05272997 19.6087515,5.00003381 19.4761552,5 L6.47615521,5 L6.47615521,5 Z M6.97615521,6 L18.9761552,6 L18.9761552,18 L6.97615521,18 L6.97615521,6 L6.97615521,6 Z M14.9546552,6.9921 C14.6785129,7.00452652 14.464729,7.2384577 14.4771554,7.51459999 C14.4895818,7.79074228 14.7235129,8.00452629 14.9996552,7.9921 L16.9996552,8.0041 L16.9876552,10.0041 C16.9840576,10.1839069 17.0772922,10.3517963 17.2318278,10.4437866 C17.3863634,10.5357768 17.5783943,10.5376972 17.7347386,10.4488157 C17.8910829,10.3599342 17.9876563,10.1939429 17.9876552,10.0141 L18.0036552,7.5141 C18.004679,7.23800704 17.7817478,7.01332999 17.5056552,7.0122 L15.0056552,6.9962 L15.0056552,6.9962 C14.9886663,6.99533252 14.9716441,6.99533252 14.9546552,6.9962 L14.9546552,6.9921 Z M8.48205521,7.0021 C8.20592428,7.00212763 7.98208284,7.22596907 7.98205521,7.5021 L7.98205521,10.0021 C7.9795043,10.1824185 8.07424192,10.350142 8.22999101,10.4410457 C8.38574011,10.5319493 8.57837032,10.5319493 8.73411942,10.4410457 C8.88986851,10.350142 8.98460613,10.1824185 8.98205521,10.0021 L8.98205521,8.0021 L10.9820552,8.0021 C11.1623737,8.00465092 11.3300972,7.9099133 11.4210009,7.7541642 C11.5119045,7.59841511 11.5119045,7.40578489 11.4210009,7.2500358 C11.3300972,7.0942867 11.1623737,6.99954908 10.9820552,7.0021 L8.48205521,7.0021 L8.48205521,7.0021 Z M8.47205521,13.4964 C8.19674115,13.5007046 7.97671046,13.7267702 7.97985521,14.0021 L7.97985521,16.5021 C7.97988284,16.7782309 8.20372428,17.0020724 8.47985521,17.0021 L10.9798552,17.0021 C11.1601737,17.0046509 11.3278972,16.9099133 11.4188009,16.7541642 C11.5097045,16.5984151 11.5097045,16.4057849 11.4188009,16.2500358 C11.3278972,16.0942867 11.1601737,15.9995491 10.9798552,16.0021 L8.97985521,16.0021 L8.97985521,14.0021 C8.98139646,13.8671478 8.92832253,13.7373027 8.83269316,13.6420688 C8.73706379,13.5468349 8.60699987,13.4942995 8.47205521,13.4964 L8.47205521,13.4964 Z M17.4583552,13.5064 C17.182221,13.5085731 16.9601206,13.7341654 16.9622552,14.0103 L16.9502552,16.0103 L14.9502552,15.9963 C14.7704483,15.9927024 14.6025589,16.085937 14.5105686,16.2404726 C14.4185784,16.3950082 14.4166581,16.5870391 14.5055395,16.7433834 C14.594421,16.8997277 14.7604123,16.9963011 14.9402552,16.9963 L17.4402552,17.0123 C17.7156499,17.0133825 17.9400819,16.7915883 17.9422552,16.5162 L17.9582552,14.0162 C17.960919,13.8812098 17.9088821,13.7508789 17.8139777,13.6548445 C17.7190733,13.5588101 17.5893675,13.5052342 17.4543552,13.5063 L17.4583552,13.5064 Z" id="rect34584" fill="#595959"></path>
    </g>
</svg>