<?xml version="1.0" encoding="UTF-8"?>
<svg width="24px" height="24px" viewBox="0 0 24 24" version="1.1" xmlns="http://www.w3.org/2000/svg" xmlns:xlink="http://www.w3.org/1999/xlink">
    <!-- Generator: Sketch 42 (36781) - http://www.bohemiancoding.com/sketch -->
    <title>Artboard 3 Copy</title>
    <desc>Created with Sketch.</desc>
    <defs></defs>
    <g id="Page-1" stroke="none" stroke-width="1" fill="none" fill-rule="evenodd">
        <g id="Artboard-3-Copy" fill-rule="nonzero" fill="#636363">
            <path d="M13.5308347,5.91864317 C10.6895558,6.13326103 8.45096909,8.50662354 8.45096909,11.402836 C8.45096909,11.6789784 8.67482671,11.902836 8.95096909,11.902836 C9.22711146,11.902836 9.45096909,11.6789784 9.45096909,11.402836 C9.45096909,9.05510386 11.2488477,7.12728878 13.5429073,6.92108824 C13.7538903,7.49413043 14.3047006,7.90283599 14.9509691,7.90283599 C15.7793962,7.90283599 16.4509691,7.23126312 16.4509691,6.40283599 C16.4509691,5.57440887 15.7793962,4.90283599 14.9509691,4.90283599 C14.2919679,4.90283599 13.7322234,5.32780469 13.5308347,5.91864317 L13.5308347,5.91864317 Z M5.92397576,10.4310283 C6.13859362,13.2723071 8.51195613,15.5108939 11.4081686,15.5108939 C11.684311,15.5108939 11.9081686,15.2870363 11.9081686,15.0108939 C11.9081686,14.7347515 11.684311,14.5108939 11.4081686,14.5108939 C9.06043646,14.5108939 7.13262137,12.7130153 6.92642083,10.4189557 C7.49946302,10.2079727 7.90816858,9.65716243 7.90816858,9.0108939 C7.90816858,8.18246678 7.23659571,7.5108939 6.40816858,7.5108939 C5.57974146,7.5108939 4.90816858,8.18246678 4.90816858,9.0108939 C4.90816858,9.6698951 5.33313728,10.2296395 5.92397576,10.4310283 L5.92397576,10.4310283 Z M10.4710089,18.1024527 C13.3122877,17.8878348 15.5508745,15.5144723 15.5508745,12.6182598 C15.5508745,12.3421175 15.3270169,12.1182598 15.0508745,12.1182598 C14.7747321,12.1182598 14.5508745,12.3421175 14.5508745,12.6182598 C14.5508745,14.965992 12.7529959,16.893807 10.4589362,17.1000076 C10.2479532,16.5269654 9.69714301,16.1182598 9.05087448,16.1182598 C8.22244735,16.1182598 7.55087448,16.7898327 7.55087448,17.6182598 C7.55087448,18.446687 8.22244735,19.1182598 9.05087448,19.1182598 C9.70987568,19.1182598 10.2696201,18.6932911 10.4710089,18.1024527 L10.4710089,18.1024527 Z M18.121849,13.5624248 C17.9072311,10.721146 15.5338686,8.48255924 12.6376562,8.48255924 C12.3615138,8.48255924 12.1376562,8.70641686 12.1376562,8.98255924 C12.1376562,9.25870161 12.3615138,9.48255924 12.6376562,9.48255924 C14.9853883,9.48255924 16.9132034,11.2804378 17.1194039,13.5744975 C16.5463617,13.7854805 16.1376562,14.3362907 16.1376562,14.9825592 C16.1376562,15.8109864 16.8092291,16.4825592 17.6376562,16.4825592 C18.4660833,16.4825592 19.1376562,15.8109864 19.1376562,14.9825592 C19.1376562,14.323558 18.7126875,13.7638136 18.121849,13.5624248 L18.121849,13.5624248 Z" id="Combined-Shape" transform="translate(12.022912, 12.010548) rotate(17.000000) translate(-12.022912, -12.010548) "></path>
        </g>
    </g>
</svg>