<?xml version="1.0" encoding="UTF-8" standalone="no"?>
<svg width="24px" height="24px" viewBox="0 0 24 24" version="1.1" xmlns="http://www.w3.org/2000/svg" xmlns:xlink="http://www.w3.org/1999/xlink">
    <!-- Generator: Sketch 3.8.3 (29802) - http://www.bohemiancoding.com/sketch -->
    <title>timeline-active</title>
    <desc>Created with Sketch.</desc>
    <defs></defs>
    <g id="Page-1" stroke="none" stroke-width="1" fill="none" fill-rule="evenodd">
        <g id="深度看图图标导出" transform="translate(-363.000000, -110.369995)">
            <g id="layer1">
                <rect id="rect38567" opacity="0" x="-2.84217094e-14" y="0" width="893.46198" height="228.77823" rx="0.000115532"></rect>
                <g id="timeline-active" transform="translate(363.000000, 110.000000)">
                    <rect id="rect34788" fill="#000000" opacity="0" x="0.00655" y="0.34286" width="24" height="24"></rect>
                    <path d="M11.50079,4.3332 C7.36459,4.3332 4.00079,7.6969 4.00079,11.8332 C4.00079,15.9694 7.36459,19.3332 11.50079,19.3332 C15.63699,19.3332 19.00079,15.9694 19.00079,11.8332 C19.00079,7.6969 15.63699,4.3332 11.50079,4.3332 L11.50079,4.3332 Z M11.49079,6.8254 C11.6257698,6.82329832 11.7558649,6.87586093 11.8515003,6.97113852 C11.9471358,7.0664161 12.0001857,7.19631331 11.99859,7.3313 L11.99859,11.6067 L15.32469,14.4563 C15.530972,14.6367557 15.5535662,14.9496295 15.3753524,15.1578515 C15.1971387,15.3660736 14.8845277,15.3920509 14.67439,15.2161 L11.17439,12.2161 C11.0627895,12.1210408 10.9985235,11.9817978 10.99859,11.8352 L10.99859,7.3313 C10.9953342,7.05589257 11.215397,6.82970449 11.49079,6.8254 L11.49079,6.8254 Z" id="path34790" fill="#01BCFF"></path>
                </g>
            </g>
        </g>
    </g>
</svg>