<?xml version="1.0" encoding="UTF-8"?>
<svg width="36px" height="36px" viewBox="0 0 36 36" version="1.1" xmlns="http://www.w3.org/2000/svg" xmlns:xlink="http://www.w3.org/1999/xlink">
    <!-- Generator: Sketch 56.2 (81672) - https://sketch.com -->
    <title>left_normal</title>
    <desc>Created with Sketch.</desc>
    <g id="页面-1" stroke="none" stroke-width="1" fill="none" fill-rule="evenodd">
        <g id="按钮规范" transform="translate(-379.000000, -54.000000)" fill="#000000">
            <g id="左旋转" transform="translate(371.000000, 47.000000)">
                <g id="Combined-Shape-2" transform="translate(8.000000, 7.000000)">
                    <path d="M22.197258,12.7760719 L20.3846068,14.5714564 L25,14.5714564 L25,10.0000279 L23.1823154,11.8003979 C21.7575233,10.6474744 19.9682152,10 18.0769382,10 C13.6161684,10 10,13.581722 10,18 C10,22.418278 13.6161684,26 18.0769382,26 C19.5923786,26 21.0479001,25.5853021 22.3107027,24.8140656 C22.6361579,24.6152991 22.7373097,24.1928465 22.5366315,23.8704915 C22.3359534,23.5481365 21.909438,23.4479482 21.5839828,23.6467148 C20.5381047,24.2854681 19.3338683,24.6285714 18.0769382,24.6285714 C14.3808718,24.6285714 11.384618,21.6608589 11.384618,18 C11.384618,14.3391411 14.3808718,11.3714286 18.0769382,11.3714286 C19.5968244,11.3714286 21.0351006,11.8748703 22.197258,12.7760719 L22.197258,12.7760719 Z M18.0769102,19.1428849 C17.4396574,19.1428849 16.9230619,18.6312104 16.9230619,18.0000278 C16.9230619,17.3688452 17.4396574,16.8571707 18.0769102,16.8571707 C18.714163,16.8571707 19.2307585,17.3688452 19.2307585,18.0000278 C19.2307585,18.6312104 18.714163,19.1428849 18.0769102,19.1428849 L18.0769102,19.1428849 Z" id="Combined-Shape" transform="translate(17.500000, 18.000000) scale(-1, 1) translate(-17.500000, -18.000000) "></path>
                </g>
            </g>
        </g>
    </g>
</svg>