<?xml version="1.0" encoding="UTF-8"?>
<svg width="60px" height="60px" viewBox="0 0 60 60" version="1.1" xmlns="http://www.w3.org/2000/svg" xmlns:xlink="http://www.w3.org/1999/xlink">
    <!-- Generator: Sketch 64 (93537) - https://sketch.com -->
    <title>58</title>
    <desc>Created with Sketch.</desc>
    <defs>
        <path d="M33.142,23 L33.142,23.29 L29.9514349,27.1051101 L32.297926,27.9585313 C32.1789054,28.0093667 32.075199,28.0898957 32.0074321,28.1976138 L31.226,29.995 L30.2096912,31.0823508 L30.477894,31.4608446 C30.3525697,31.5110732 30.2028574,31.4776031 30.0762477,31.3556459 L28.7687225,30.096169 C28.4631361,29.9176361 28.0111098,30.0115668 27.8201368,30.2932841 L25.1616068,34.2150667 C24.9102358,34.5858814 25.2722948,35.0010038 25.7843179,34.9290437 L32.288,34.015 L33.142,35.219 L33.142,35.6 L24.6106525,36.800168 C23.4267426,36.9665556 22.3373996,36.1793281 22.1775369,35.0418461 L21.0197089,26.8034718 C20.8598463,25.6659897 21.6900006,24.6089944 22.8739105,24.4426068 L33.142,23 Z M35.105,23.628 L38.1932753,23.6287048 C38.9464292,23.6287048 39.6574671,24.1123671 40.0001425,24.783147 L40.0001425,35.1018282 C39.6574671,35.7726081 38.9464292,36.2562705 38.1932753,36.2562705 L36.005,36.256 L32.6371463,31.2052441 L35.8361976,27.5269278 L32.8673176,26.4463439 L35.105,23.628 Z M25.0092767,25.9427355 C24.0342921,26.0797607 23.3549917,26.9812227 23.4920168,27.9562074 C23.629042,28.9311921 24.5305041,29.6104925 25.5054887,29.4734673 C26.4804734,29.3364421 27.1597738,28.4349801 27.0227486,27.4599954 C26.8857235,26.4850107 25.9842614,25.8057104 25.0092767,25.9427355 Z" id="path-1"></path>
    </defs>
    <g id="浅" stroke="none" stroke-width="1" fill="none" fill-rule="evenodd">
        <g id="画板备份" transform="translate(-123.000000, -15.000000)">
            <g id="58" transform="translate(123.000000, 15.000000)">
                <rect id="Rectangle-90" stroke-opacity="0.1" stroke="#000000" fill-opacity="0.8" fill="#FFFFFF" fill-rule="nonzero" x="0.5" y="0.5" width="59" height="59" rx="4"></rect>
                <mask id="mask-2" fill="white">
                    <use xlink:href="#path-1"></use>
                </mask>
                <use id="形状结合" fill-opacity="0.25" fill="#000000" fill-rule="nonzero" xlink:href="#path-1"></use>
            </g>
        </g>
    </g>
</svg>