<?xml version="1.0" encoding="UTF-8"?>
<svg width="48px" height="39px" viewBox="0 0 48 39" version="1.1" xmlns="http://www.w3.org/2000/svg" xmlns:xlink="http://www.w3.org/1999/xlink">
    <!-- Generator: Sketch 47 (45396) - http://www.bohemiancoding.com/sketch -->
    <title>collect_active</title>
    <desc>Created with Sketch.</desc>
    <defs></defs>
    <g id="Page-1" stroke="none" stroke-width="1" fill="none" fill-rule="evenodd">
        <g id="图标" transform="translate(-187.000000, -749.000000)">
            <g id="press" transform="translate(91.000000, 748.000000)">
                <g id="收藏" transform="translate(96.000000, 0.000000)">
                    <rect id="Rectangle-175" stroke="#FFFFFF" fill="#000000" opacity="0" x="0" y="0" width="48" height="40"></rect>
                    <path d="M20.01757,13.0077035 C19.80961,13.0177035 19.60242,13.0437035 19.39843,13.0857035 L19.39843,13.0857035 C17.55887,13.4677035 16,15.1105035 16,17.5642035 C16,20.0475035 17.73344,21.7572035 19.49218,23.1208035 C21.25093,24.4845035 23.06604,25.6360035 23.54492,26.6736035 C23.72597,27.0650035 24.28443,27.0590035 24.45703,26.6636035 C24.94188,25.5727035 26.74949,24.4062035 28.50586,23.0444035 C30.2622,21.6827035 32,20.0006035 32,17.5620035 C32,15.1083035 30.44113,13.4655035 28.60156,13.0835035 C26.96965,12.7445035 25.15841,13.4411035 24,15.1109035 C22.98638,13.6498035 21.47335,12.9344035 20.01757,13.0054035 L20.01757,13.0077035 Z" id="path34244" fill="#F13D5B" opacity="0.918"></path>
                </g>
            </g>
        </g>
    </g>
</svg>