<?xml version="1.0" encoding="UTF-8"?>
<svg width="48px" height="39px" viewBox="0 0 48 39" version="1.1" xmlns="http://www.w3.org/2000/svg" xmlns:xlink="http://www.w3.org/1999/xlink">
    <!-- Generator: Sketch 47 (45396) - http://www.bohemiancoding.com/sketch -->
    <title>delete_press</title>
    <desc>Created with Sketch.</desc>
    <defs></defs>
    <g id="Page-1" stroke="none" stroke-width="1" fill="none" fill-rule="evenodd">
        <g id="图标" transform="translate(-331.000000, -749.000000)">
            <g id="press" transform="translate(91.000000, 748.000000)">
                <g id="删除-copy-2" transform="translate(240.000000, 0.000000)">
                    <rect id="Rectangle-175" stroke="#FFFFFF" fill="#000000" opacity="0" x="0" y="0" width="48" height="40"></rect>
                    <path d="M26.4477983,12.0019 C26.4361352,12.0014916 26.4244614,12.0014916 26.4127983,12.0019 L22.4635983,12.0019 C22.4466093,12.0010325 22.4295872,12.0010325 22.4125983,12.0019 C22.1447454,12.0256422 21.9436284,12.2569621 21.9573507,12.5255148 C21.9710729,12.7940675 22.1947204,13.0036832 22.4635983,13 L26.4127983,13 C26.5918534,13.006938 26.7609466,12.917587 26.8561041,12.7657519 C26.9512616,12.6139167 26.9579512,12.4227849 26.873642,12.2646684 C26.7893329,12.1065519 26.6269003,12.0055975 26.4477983,12 L26.4477983,12.0019 Z M17.4751983,14.0019 C17.2965533,14.0109938 17.136332,14.1147087 17.0548951,14.2739719 C16.9734582,14.4332351 16.9831795,14.6238476 17.0803965,14.7739994 C17.1776136,14.9241513 17.347555,15.0110279 17.5261983,15.0019 L31.4323983,15.0019 C31.6127152,15.0044486 31.7804363,14.9097105 31.8713386,14.7539623 C31.9622408,14.5982142 31.9622408,14.4055858 31.8713386,14.2498377 C31.7804363,14.0940895 31.6127152,13.9993514 31.4323983,14.0019 L17.5261983,14.0019 C17.5092093,14.0010325 17.4921872,14.0010325 17.4751983,14.0019 L17.4751983,14.0019 Z M19.4360983,16.0019 C19.3034891,16.0039658 19.1771322,16.0586273 19.0848262,16.1538589 C18.9925202,16.2490905 18.9418267,16.3770909 18.9438983,16.5097 L18.9438983,26.5019 C18.9439259,26.7780309 19.1677673,27.0018724 19.4438983,27.0019 L29.4438983,27.0019 C29.7200292,27.0018724 29.9438707,26.7780309 29.9438983,26.5019 L29.9438983,16.5097 C29.9464476,16.3293825 29.8517097,16.1616606 29.6959612,16.0707579 C29.5402128,15.9798552 29.3475838,15.9798552 29.1918353,16.0707579 C29.0360869,16.1616606 28.9413489,16.3293825 28.9438983,16.5097 L28.9438983,26.0019 L19.9438983,26.0019 L19.9438983,16.5097 C19.9460122,16.3743861 19.8931911,16.2439933 19.797498,16.1483002 C19.701805,16.0526072 19.5714122,15.9997861 19.4360983,16.0019 L19.4360983,16.0019 Z M22.4360983,16.9726 C22.1607052,16.9769045 21.9406424,17.2030926 21.9438983,17.4785 C21.9435779,17.4888309 21.9435779,17.4991691 21.9438983,17.5095 L21.9438983,24.5271 C21.9413497,24.7074169 22.0360878,24.8751381 22.191836,24.9660403 C22.3475841,25.0569425 22.5402125,25.0569425 22.6959606,24.9660403 C22.8517087,24.8751381 22.9464469,24.7074169 22.9438983,24.5271 L22.9438983,17.5095 L22.9438983,17.4785 C22.9454939,17.3435133 22.892444,17.2136161 22.7968086,17.1183385 C22.7011732,17.0230609 22.571078,16.9704983 22.4360983,16.9726 L22.4360983,16.9726 Z M24.4360983,17.0016 C24.3034891,17.0036658 24.1771322,17.0583273 24.0848262,17.1535589 C23.9925202,17.2487905 23.9418267,17.3767909 23.9438983,17.5094 L23.9438983,24.527 C23.9413497,24.7073169 24.0360878,24.8750381 24.191836,24.9659403 C24.3475841,25.0568425 24.5402125,25.0568425 24.6959606,24.9659403 C24.8517087,24.8750381 24.9464469,24.7073169 24.9438983,24.527 L24.9438983,17.5094 C24.9460122,17.3740861 24.8931911,17.2436933 24.797498,17.1480002 C24.701805,17.0523072 24.5714122,16.9994861 24.4360983,17.0016 L24.4360983,17.0016 Z M26.4360983,17.0326 C26.1607052,17.0369045 25.9406424,17.2630926 25.9438983,17.5385 L25.9438983,24.5034 C25.9413497,24.6837169 26.0360878,24.8514381 26.191836,24.9423403 C26.3475841,25.0332425 26.5402125,25.0332425 26.6959606,24.9423403 C26.8517087,24.8514381 26.9464469,24.6837169 26.9438983,24.5034 L26.9438983,17.5385 C26.9454667,17.4035306 26.8924048,17.2736594 26.7967724,17.1784037 C26.70114,17.0831479 26.5710605,17.0305989 26.4360983,17.0327 L26.4360983,17.0326 Z" id="line34528" fill="#01BCFF"></path>
                </g>
            </g>
        </g>
    </g>
</svg>