<?xml version="1.0" encoding="UTF-8"?>
<svg width="128px" height="128px" viewBox="0 0 128 128" version="1.1" xmlns="http://www.w3.org/2000/svg" xmlns:xlink="http://www.w3.org/1999/xlink">
    <!-- Generator: Sketch 56.2 (81672) - https://sketch.com -->
    <title>icon_import_photo</title>
    <desc>Created with Sketch.</desc>
    <g id="页面-1" stroke="none" stroke-width="1" fill="none" fill-rule="evenodd">
        <g id="[1-7]-相册图片为空" transform="translate(-897.000000, -385.000000)">
            <g id="Group-4" transform="translate(310.000000, 75.000000)">
                <g id="音乐1">
                    <g id="编组-2" transform="translate(499.000000, 310.000000)">
                        <g id="icon_import_photo" transform="translate(88.000000, 0.000000)">
                            <g id="编组-5" transform="translate(53.982886, 63.522303) rotate(-15.000000) translate(-53.982886, -63.522303) translate(7.482886, 28.522303)">
                                <rect id="矩形" fill="#FFFFFF" x="2.10526316" y="3.15789474" width="87.3684211" height="64.2105263"></rect>
                                <path d="M6,0 L86.6315789,0 C89.9452874,-6.08718376e-16 92.6315789,2.6862915 92.6315789,6 L92.6315789,63.4736842 C92.6315789,66.7873927 89.9452874,69.4736842 86.6315789,69.4736842 L6,69.4736842 C2.6862915,69.4736842 4.05812251e-16,66.7873927 0,63.4736842 L0,6 C-4.05812251e-16,2.6862915 2.6862915,6.08718376e-16 6,0 Z M5.15789474,3.15789474 C4.05332524,3.15789474 3.15789474,4.05332524 3.15789474,5.15789474 L3.15789474,64.3157895 C3.15789474,65.420359 4.05332524,66.3157895 5.15789474,66.3157895 L87.4736842,66.3157895 C88.5782537,66.3157895 89.4736842,65.420359 89.4736842,64.3157895 L89.4736842,5.15789474 C89.4736842,4.05332524 88.5782537,3.15789474 87.4736842,3.15789474 L5.15789474,3.15789474 Z" id="形状结合" fill="#EBEBEB" fill-rule="nonzero"></path>
                            </g>
                            <g id="编组-5" transform="translate(17.989781, 39.382727)">
                                <rect id="矩形" fill="#FFFFFF" x="2.10526316" y="3.15789474" width="87.3684211" height="64.2105263"></rect>
                                <path d="M6,0 L86.6315789,0 C89.9452874,-6.08718376e-16 92.6315789,2.6862915 92.6315789,6 L92.6315789,63.4736842 C92.6315789,66.7873927 89.9452874,69.4736842 86.6315789,69.4736842 L6,69.4736842 C2.6862915,69.4736842 -1.37054459e-15,66.7873927 0,63.4736842 L0,6 C-2.18216909e-15,2.6862915 2.6862915,6.08718376e-16 6,0 Z M5.15789474,3.15789474 C4.05332524,3.15789474 3.15789474,4.05332524 3.15789474,5.15789474 L3.15789474,64.3157895 C3.15789474,65.420359 4.05332524,66.3157895 5.15789474,66.3157895 L87.4736842,66.3157895 C88.5782537,66.3157895 89.4736842,65.420359 89.4736842,64.3157895 L89.4736842,5.15789474 C89.4736842,4.05332524 88.5782537,3.15789474 87.4736842,3.15789474 L5.15789474,3.15789474 Z" id="形状结合" fill="#EBEBEB" fill-rule="nonzero"></path>
                                <path d="M20.2631579,11.5789474 C17.8506842,11.5789474 15.8006316,12.1578947 14.1118421,13.8947368 C12.4230526,15.6315789 11.5789474,17.3684211 11.5789474,20.2631579 C11.5789474,22.5789474 12.4230526,24.3157895 14.1118421,26.0526316 C15.8006316,27.7894737 17.8506842,28.9473684 20.2631579,28.9473684 C22.6756316,28.9473684 24.7256842,27.7894737 26.4144737,26.0526316 C28.1032632,24.3157895 28.9473684,22.5789474 28.9473684,20.2631579 C28.9473684,17.3684211 28.1032632,15.6315789 26.4144737,13.8947368 C24.7256842,12.1578947 22.6756316,11.5789474 20.2631579,11.5789474 Z M56.4473684,18.5263158 L33.2894737,41.6842105 L26.0526316,34.7368421 L11.5789474,49.2105263 L11.5789474,57.8947368 L81.0526316,57.8947368 L81.0526316,46.3157895 L56.4473684,18.5263158 Z" id="形状" fill="#E6E6E6" fill-rule="nonzero"></path>
                            </g>
                            <circle id="椭圆形" stroke="#E6E6E6" stroke-width="3" fill="#FFFFFF" cx="107" cy="89" r="19"></circle>
                            <path d="M113.307034,88.6269144 C113.39234,88.6269144 113.480692,88.6475832 113.553812,88.6977787 C114.114392,89.0845794 114.108299,89.7105469 113.748796,90.0648682 L107.119323,96.587332 C106.781147,96.9180318 106.229706,96.9239372 105.888483,96.59619 L105.879343,96.587332 L99.2498698,90.0648682 C98.9116935,89.7312157 98.9177868,89.1967811 99.2620563,88.8719866 C99.4235279,88.7184474 99.6428855,88.6298671 99.8683363,88.6298671 L102.963715,88.6298671 L102.963715,81.4222328 C102.963715,81.1889713 103.1587,81 103.399384,81 L109.599282,81 C109.839966,81 110.034951,81.1889713 110.034951,81.4222328 L110.034951,88.6269144 L113.307034,88.6269144 Z" id="形状" fill="#E6E6E6" fill-rule="nonzero" transform="translate(106.500000, 88.919355) scale(1, -1) rotate(-270.000000) translate(-106.500000, -88.919355) "></path>
                        </g>
                    </g>
                </g>
            </g>
        </g>
    </g>
</svg>