<?xml version="1.0" encoding="UTF-8"?>
<svg width="30px" height="40px" viewBox="0 0 30 40" version="1.1" xmlns="http://www.w3.org/2000/svg" xmlns:xlink="http://www.w3.org/1999/xlink">
    <!-- Generator: Sketch 58 (84663) - https://sketch.com -->
    <title>imagewithbg</title>
    <desc>Created with Sketch.</desc>
    <g id="浅" stroke="none" stroke-width="1" fill="none" fill-rule="evenodd">
        <g id="画板" transform="translate(-436.000000, -27.000000)" fill-rule="nonzero">
            <g id="imagewithbg" transform="translate(436.000000, 27.000000)">
                <rect id="Rectangle-90备份-3" stroke-opacity="0.1" stroke="#000000" fill-opacity="0.8" fill="#FFFFFF" x="0.5" y="0.5" width="29" height="39" rx="4"></rect>
                <path d="M19.2857143,15 C20.2324881,15 21,15.7461921 21,16.6666667 L21,23.3333333 C21,24.2538079 20.2324881,25 19.2857143,25 L10.7142857,25 C9.76751186,25 9,24.2538079 9,23.3333333 L9,16.6666667 C9,15.7461921 9.76751186,15 10.7142857,15 L19.2857143,15 Z M16.4754652,19.1484349 L15.2483114,21.0295339 C15.1388554,21.1973186 14.9397211,21.2010931 14.8108538,21.046734 L14.0184922,20.0976328 C13.8218976,19.951983 13.4958271,19.9719762 13.3342273,20.139589 L11.0845993,22.4729222 C10.871891,22.6935451 11.0847617,23 11.4507189,23 L19.5493795,23 C19.8991042,23 20.1151193,22.7173446 19.9351876,22.4951697 L17.2356339,19.1618364 C17.0656977,18.9520039 16.6586809,18.9448284 16.4754652,19.1484349 Z M12.2307692,16.8181818 C11.4660673,16.8181818 10.8461538,17.4287026 10.8461538,18.1818182 C10.8461538,18.9349337 11.4660673,19.5454545 12.2307692,19.5454545 C12.9954712,19.5454545 13.6153846,18.9349337 13.6153846,18.1818182 C13.6153846,17.4287026 12.9954712,16.8181818 12.2307692,16.8181818 Z" id="形状" fill-opacity="0.25" fill="#000000"></path>
            </g>
        </g>
    </g>
</svg>