<?xml version="1.0" encoding="UTF-8"?>
<svg width="30px" height="40px" viewBox="0 0 30 40" version="1.1" xmlns="http://www.w3.org/2000/svg" xmlns:xlink="http://www.w3.org/1999/xlink">
    <!-- Generator: Sketch 64 (93537) - https://sketch.com -->
    <title>imagewithbg</title>
    <desc>Created with Sketch.</desc>
    <defs>
        <path d="M16.593,15 L16.593,15.206 L14.3355754,17.9054822 L15.9960981,18.5096201 C15.9119668,18.5456061 15.8386672,18.6025637 15.7907527,18.6787257 L15.237,19.951 L14.5183619,20.7204619 L14.7077027,20.9885433 C14.6191007,21.023813 14.5133617,21.0000529 14.4239144,20.9138926 L13.4984846,20.02247 C13.2821991,19.8961095 12.9622675,19.9625909 12.8271022,20.1619826 L10.945469,22.9377106 C10.7675556,23.200163 11.0238108,23.493975 11.3862065,23.4430436 L15.989,22.796 L16.593,23.647 L16.593,23.919 L10.5555189,24.767373 C9.71758056,24.8851376 8.94657405,24.3279599 8.83342772,23.522882 L8.01394944,17.691991 C7.9008031,16.886913 8.48836315,16.1388013 9.32630147,16.0210367 L16.593,15 Z M17.983,15.444 L20.1689196,15.4449797 C20.7018415,15.4449797 21.2049705,15.7871235 21.4475794,16.2616894 L21.4476688,23.565533 C21.2050941,24.0401898 20.7019069,24.3824176 20.1689196,24.3824176 L18.619,24.382 L16.2364468,20.8074424 L18.5006459,18.204033 L16.3993556,17.4392258 L17.983,15.444 Z M10.837654,17.0827859 C10.1475871,17.1797685 9.66679727,17.8177981 9.76377984,18.507865 C9.86076242,19.1979319 10.4987921,19.6787217 11.188859,19.5817392 C11.8789258,19.4847566 12.3597157,18.8467269 12.2627331,18.15666 C12.1657505,17.4665932 11.5277209,16.9858033 10.837654,17.0827859 Z" id="path-1"></path>
    </defs>
    <g id="浅" stroke="none" stroke-width="1" fill="none" fill-rule="evenodd">
        <g id="画板备份" transform="translate(-436.000000, -27.000000)">
            <g id="imagewithbg" transform="translate(436.000000, 27.000000)">
                <rect id="Rectangle-90备份-3" stroke-opacity="0.1" stroke="#000000" fill-opacity="0.8" fill="#FFFFFF" fill-rule="nonzero" x="0.5" y="0.5" width="29" height="39" rx="4"></rect>
                <mask id="mask-2" fill="white">
                    <use xlink:href="#path-1"></use>
                </mask>
                <use id="形状结合" fill-opacity="0.25" fill="#000000" xlink:href="#path-1"></use>
            </g>
        </g>
    </g>
</svg>