<?xml version="1.0" encoding="UTF-8"?>
<svg width="60px" height="60px" viewBox="0 0 60 60" version="1.1" xmlns="http://www.w3.org/2000/svg" xmlns:xlink="http://www.w3.org/1999/xlink">
    <!-- Generator: Sketch 58 (84663) - https://sketch.com -->
    <title>编组 3</title>
    <desc>Created with Sketch.</desc>
    <g id="浅" stroke="none" stroke-width="1" fill="none" fill-rule="evenodd">
        <g id="编组-3" transform="translate(1.000000, 1.000000)">
            <rect id="Rectangle-90" stroke-opacity="0.1" stroke="#000000" fill-opacity="0.3" fill="#000000" x="-0.5" y="-0.5" width="59" height="59" rx="4"></rect>
            <path d="M21.9166667,22 C21.1064167,22 20.4178889,22.1923077 19.8506944,22.7692308 C19.2835,23.3461538 19,23.9230769 19,24.8846154 C19,25.6538462 19.2835,26.2307692 19.8506944,26.8076923 C20.4178889,27.3846154 21.1064167,27.7692308 21.9166667,27.7692308 C22.7269167,27.7692308 23.4154444,27.3846154 23.9826389,26.8076923 C24.5498333,26.2307692 24.8333333,25.6538462 24.8333333,24.8846154 C24.8333333,23.9230769 24.5498333,23.3461538 23.9826389,22.7692308 C23.4154444,22.1923077 22.7269167,22 21.9166667,22 Z M32.5625,25.4615385 L25.5625,32.2488688 L23.375,30.2126697 L19,34.4547511 L19,37 L40,37 L40,33.6063348 L32.5625,25.4615385 Z" id="形状备份-2" fill-opacity="0.25" fill="#FFFFFF" fill-rule="nonzero"></path>
        </g>
    </g>
</svg>