<?xml version="1.0" encoding="UTF-8"?>
<svg width="48px" height="39px" viewBox="0 0 48 39" version="1.1" xmlns="http://www.w3.org/2000/svg" xmlns:xlink="http://www.w3.org/1999/xlink">
    <!-- Generator: Sketch 47 (45396) - http://www.bohemiancoding.com/sketch -->
    <title>adapt_screen_active</title>
    <desc>Created with Sketch.</desc>
    <defs></defs>
    <g id="Page-1" stroke="none" stroke-width="1" fill="none" fill-rule="evenodd">
        <g id="图标" transform="translate(-139.000000, -413.000000)">
            <g id="press" transform="translate(91.000000, 412.000000)">
                <g id="适合窗口" transform="translate(48.000000, 0.000000)">
                    <rect id="Rectangle-175" stroke="#FFFFFF" fill="#000000" opacity="0" transform="translate(24.000000, 20.000000) scale(-1, 1) translate(-24.000000, -20.000000) " x="0" y="0" width="48" height="40"></rect>
                    <path d="M18,13 C17.446,13 17,13.4463 17,14 L17,26.002 C17,26.5556 17.446,27 18,27 L30,27 C30.554,27 31,26.5556 31,26.002 L31,14 C31,13.4463 30.554,13 30,13 L18,13 L18,13 Z M25.9785,14.9922 C25.9954889,14.9913325 26.0125111,14.9913325 26.0295,14.9922 L26.0295,14.9922 L28.5295,15.0082 C28.662453,15.0087145 28.7897275,15.0621549 28.8831944,15.1567101 C28.9766613,15.2512654 29.0286246,15.37915 29.0276,15.5121 L29.0116,18.0102 C29.0115989,18.1900414 28.9150251,18.3560305 28.7586817,18.4449106 C28.6023383,18.5337907 28.4103091,18.5318705 28.2557744,18.4398815 C28.1012397,18.3478926 28.0080046,18.1800055 28.0116,18.0002 L28.0236,16.0002 L26.0236,15.9882 C25.8449672,15.9962386 25.6756151,15.908367 25.5793371,15.7576856 C25.4830592,15.6070043 25.4744822,15.4164053 25.5568371,15.2576855 C25.639192,15.0989657 25.7999672,14.9962384 25.9786,14.9882 L25.9785,14.9922 Z M19.5059,15.0022 L22.0059,15.0022 C22.1862169,14.9996514 22.3539381,15.0943895 22.4448403,15.2501377 C22.5357425,15.4058858 22.5357425,15.5985142 22.4448403,15.7542623 C22.3539381,15.9100105 22.1862169,16.0047486 22.0059,16.0022 L20.0059,16.0022 L20.0059,18.0022 C20.0084486,18.1825169 19.9137105,18.3502381 19.7579623,18.4411403 C19.6022142,18.5320425 19.4095858,18.5320425 19.2538377,18.4411403 C19.0980895,18.3502381 19.0033514,18.1825169 19.0059,18.0022 L19.0059,15.5022 C19.0059276,15.226069 19.229769,15.0022276 19.5059,15.0022 L19.5059,15.0022 Z M19.4959,21.4943 C19.6312315,21.4921854 19.76164,21.5450201 19.8573361,21.640735 C19.9530322,21.73645 20.0058413,21.8668689 20.0037,22.0022 L20.0037,24.0022 L22.0037,24.0022 C22.184018,23.9996499 22.3517407,24.0943876 22.4426439,24.2501364 C22.533547,24.4058852 22.533547,24.5985148 22.4426439,24.7542636 C22.3517407,24.9100124 22.184018,25.0047501 22.0037,25.0022 L19.5037,25.0022 C19.2275691,25.0021724 19.0037276,24.7783309 19.0037,24.5022 L19.0037,22.0022 C19.0016016,21.8695737 19.0522832,21.7415476 19.1445921,21.6462943 C19.236901,21.551041 19.3632732,21.4963657 19.4959,21.4943 L19.4959,21.4943 Z M28.4803,21.5043 C28.6156226,21.5027179 28.7458079,21.5560523 28.8411243,21.6521225 C28.9364407,21.7481926 28.9887479,21.8787941 28.9861,22.0141 L28.9701,24.5141 C28.96897,24.7901925 28.744293,25.0131237 28.4682,25.0121 L25.9682,24.9941 C25.7883571,24.9941011 25.6223658,24.8975277 25.5334843,24.7411834 C25.4446028,24.5848391 25.4465232,24.3928082 25.5385134,24.2382726 C25.6305037,24.083737 25.7983931,23.9905024 25.9782,23.9941 L27.9782,24.0081 L27.9902,22.0081 C27.9881158,21.7327774 28.2089889,21.5075682 28.4843,21.5043 L28.4803,21.5043 Z" id="path34832" fill="#01BCFF"></path>
                </g>
            </g>
        </g>
    </g>
</svg>