<?xml version="1.0" encoding="UTF-8"?>
<svg width="48px" height="39px" viewBox="0 0 48 39" version="1.1" xmlns="http://www.w3.org/2000/svg" xmlns:xlink="http://www.w3.org/1999/xlink">
    <!-- Generator: Sketch 47 (45396) - http://www.bohemiancoding.com/sketch -->
    <title>adapt_image_active</title>
    <desc>Created with Sketch.</desc>
    <defs></defs>
    <g id="Page-1" stroke="none" stroke-width="1" fill="none" fill-rule="evenodd">
        <g id="图标" transform="translate(-91.000000, -413.000000)">
            <g id="press" transform="translate(91.000000, 412.000000)">
                <g id="1:1">
                    <rect id="Rectangle-175" stroke="#FFFFFF" fill="#000000" opacity="0" transform="translate(24.000000, 20.000000) scale(-1, 1) translate(-24.000000, -20.000000) " x="0" y="0" width="48" height="40"></rect>
                    <path d="M18,13 C17.446,13 17,13.4463 17,14 L17,26.002 C17,26.5556 17.446,27 18,27 L30,27 C30.554,27 31,26.5556 31,26.002 L31,14 C31,13.4463 30.554,13 30,13 L18,13 L18,13 Z M20.4922,16.002 C20.6271622,15.9998989 20.7572418,16.0524479 20.8528742,16.1477036 C20.9485066,16.2429594 21.0015685,16.3728305 21,16.5078 L21,23.4941 C21.0025471,23.6744159 20.9078086,23.8421354 20.7520611,23.9330367 C20.5963136,24.0239379 20.4036864,24.0239379 20.2479389,23.9330367 C20.0921914,23.8421354 19.9974529,23.6744159 20,23.4941 L20,16.5078 C19.9967997,16.2324314 20.2168464,16.0063045 20.4922,16.002 L20.4922,16.002 Z M27.4922,16.002 C27.6271622,15.9998989 27.7572417,16.0524479 27.8528741,16.1477037 C27.9485065,16.2429594 28.0015685,16.3728306 28,16.5078 L28,23.4941 C28.0025494,23.6744175 27.9078114,23.8421394 27.7520629,23.9330421 C27.5963145,24.0239448 27.4036855,24.0239448 27.2479371,23.9330421 C27.0921886,23.8421394 26.9974506,23.6744175 27,23.4941 L27,16.5078 C26.9967997,16.2324314 27.2168465,16.0063045 27.4922,16.002 L27.4922,16.002 Z M23.4551,18.002 C23.4720889,18.0011325 23.4891111,18.0011325 23.5061,18.002 L24.4944,18.002 C24.6747169,17.9994514 24.8424381,18.0941895 24.9333403,18.2499377 C25.0242425,18.4056858 25.0242425,18.5983142 24.9333403,18.7540623 C24.8424381,18.9098105 24.6747169,19.0045486 24.4944,19.002 L23.5061,19.002 C23.2299749,19.016056 22.99473,18.8036213 22.9806477,18.5274976 C22.9665654,18.2513738 23.1789776,18.0161086 23.4551,18.002 L23.4551,18.002 Z M23.4551,21.002 C23.4720889,21.0011325 23.4891111,21.0011325 23.5061,21.002 L24.4905,21.002 C24.6708169,20.9994514 24.8385381,21.0941895 24.9294403,21.2499377 C25.0203425,21.4056858 25.0203425,21.5983142 24.9294403,21.7540623 C24.8385381,21.9098105 24.6708169,22.0045486 24.4905,22.002 L23.5042,22.002 C23.2280577,22.0155308 22.9932312,21.8026423 22.9797003,21.5265 C22.9661693,21.2503577 23.1790577,21.0155311 23.4552,21.002 L23.4551,21.002 Z" id="path34830" fill="#01BCFF"></path>
                </g>
            </g>
        </g>
    </g>
</svg>