<?xml version="1.0" encoding="UTF-8"?>
<svg width="30px" height="40px" viewBox="0 0 30 40" version="1.1" xmlns="http://www.w3.org/2000/svg" xmlns:xlink="http://www.w3.org/1999/xlink">
    <!-- Generator: Sketch 58 (84663) - https://sketch.com -->
    <title>编组 8</title>
    <desc>Created with Sketch.</desc>
    <g id="浅" stroke="none" stroke-width="1" fill="none" fill-rule="evenodd">
        <g id="看图。占位图" transform="translate(-791.000000, -928.000000)" fill-rule="nonzero">
            <g id="编组-8" transform="translate(791.000000, 928.000000)">
                <rect id="Rectangle-90备份-3" stroke-opacity="0.4" stroke="#000000" fill-opacity="0.3" fill="#000000" x="1" y="1" width="28" height="38" rx="4"></rect>
                <path d="M19.2857143,15 C20.2324881,15 21,15.7461921 21,16.6666667 L21,23.3333333 C21,24.2538079 20.2324881,25 19.2857143,25 L10.7142857,25 C9.76751186,25 9,24.2538079 9,23.3333333 L9,16.6666667 C9,15.7461921 9.76751186,15 10.7142857,15 L19.2857143,15 Z M16.4620156,18.8050397 L15.2033963,20.9426522 C15.0911337,21.1333166 14.8868934,21.1376058 14.7547218,20.9621978 L13.9420433,19.8836736 C13.7404078,19.7181625 13.4059765,19.7408821 13.2402331,19.9313511 L10.9329224,22.5828662 C10.71476,22.833574 10.9330889,23.1818182 11.3084296,23.1818182 L19.6147482,23.1818182 C19.9734402,23.1818182 20.1949942,22.8606189 20.0104488,22.6081474 L17.2416758,18.8202686 C17.0673823,18.5818226 16.6499291,18.5736686 16.4620156,18.8050397 Z M12.2307692,16.8181818 C11.4660673,16.8181818 10.8461538,17.4287026 10.8461538,18.1818182 C10.8461538,18.9349337 11.4660673,19.5454545 12.2307692,19.5454545 C12.9954712,19.5454545 13.6153846,18.9349337 13.6153846,18.1818182 C13.6153846,17.4287026 12.9954712,16.8181818 12.2307692,16.8181818 Z" id="形状" fill-opacity="0.25" fill="#FFFFFF"></path>
            </g>
        </g>
    </g>
</svg>