<?xml version="1.0" encoding="UTF-8"?>
<svg width="24px" height="24px" viewBox="0 0 24 24" version="1.1" xmlns="http://www.w3.org/2000/svg" xmlns:xlink="http://www.w3.org/1999/xlink">
    <!-- Generator: Sketch 47.1 (45422) - http://www.bohemiancoding.com/sketch -->
    <title>mainwindow_dark_press</title>
    <desc>Created with Sketch.</desc>
    <defs></defs>
    <g id="Page-1" stroke="none" stroke-width="1" fill="none" fill-rule="evenodd" opacity="0.971">
        <g id="folder-press" fill="#01BCFF">
            <path d="M7.47086996,5.00064976 C7.29385212,5.00973172 7.13509027,5.11331143 7.05439513,5.27236706 C6.97369998,5.4314227 6.98333267,5.62178672 7.07966425,5.77174287 C7.17599584,5.92169903 7.34438931,6.00846239 7.52140543,5.9993464 L16.4974957,5.9993464 C16.6761718,6.00189399 16.8423676,5.90727985 16.9324432,5.75173375 C17.0225189,5.59618765 17.0225189,5.40380851 16.9324432,5.24826241 C16.8423676,5.09271631 16.6761718,4.99810217 16.4974957,5.00064976 L7.52140543,5.00064976 C7.50457124,4.99978341 7.48770415,4.99978341 7.47086996,5.00064976 L7.47086996,5.00064976 Z M6.47204651,7.00064976 C6.29458636,7.00973172 6.13542782,7.11331143 6.05453104,7.27236706 C5.97363427,7.4314227 5.98329103,7.62178672 6.07986331,7.77174287 C6.17643559,7.92169903 6.34524983,8.00846239 6.52270825,7.9993464 L17.4962401,7.9993464 C17.6753626,8.00189399 17.8419737,7.90727985 17.9322744,7.75173375 C18.0225752,7.59618765 18.0225752,7.40380851 17.9322744,7.24826241 C17.8419737,7.09271631 17.6753626,6.99810217 17.4962401,7.00064976 L6.52270825,7.00064976 C6.505832,6.99978341 6.48892277,6.99978341 6.47204651,7.00064976 L6.47204651,7.00064976 Z M5.5,9.00065061 C5.36740369,9.00068441 5.24024947,9.05338057 5.1465,9.14715061 C5.05272996,9.24090008 5.0000338,9.36805429 5,9.50065061 L5,18.5006506 C5.00006031,18.6332123 5.05275445,18.7603256 5.1465,18.8540506 C5.2402331,18.9478573 5.36738933,19.0005903 5.5,19.0006506 L18.5,19.0006506 C18.6326107,19.0005903 18.7597669,18.9478573 18.8535,18.8540506 C18.9472455,18.7603256 18.9999397,18.6332123 19,18.5006506 L19,9.50065061 C18.9999662,9.36805429 18.94727,9.24090008 18.8535,9.14715061 C18.7597505,9.05338057 18.6325963,9.00068441 18.5,9.00065061 L5.5,9.00065061 L5.5,9.00065061 Z M6,10.0006506 L18,10.0006506 L18,18.0006506 L6,18.0006506 L6,10.0006506 L6,10.0006506 Z" id="rect34710"></path>
        </g>
    </g>
</svg>