<?xml version="1.0" encoding="UTF-8"?>
<svg width="24px" height="24px" viewBox="0 0 24 24" version="1.1" xmlns="http://www.w3.org/2000/svg" xmlns:xlink="http://www.w3.org/1999/xlink">
    <!-- Generator: Sketch 47.1 (45422) - http://www.bohemiancoding.com/sketch -->
    <title>mainwindow_dark_normal</title>
    <desc>Created with Sketch.</desc>
    <defs></defs>
    <g id="Page-1" stroke="none" stroke-width="1" fill="none" fill-rule="evenodd" opacity="0.971">
        <g id="folder-normal" fill="#FFFFFF">
            <path d="M7.49248064,5 C7.44294163,5.00099856 7.39382886,5.00941723 7.34676705,5.02497752 C7.29899419,5.04005688 7.25376215,5.06228745 7.21259907,5.09091817 C7.18533232,5.10965868 7.15999271,5.13107854 7.1369554,5.15486063 C7.12603195,5.16732626 7.11573429,5.18033071 7.10610075,5.19382556 C7.095802,5.20698604 7.08616851,5.22065765 7.07723671,5.23478869 C7.06891451,5.2487269 7.0612747,5.26306439 7.05434455,5.27775002 C7.04725404,5.29307158 7.04094229,5.3087443 7.03543363,5.32470776 C7.02399281,5.35577206 7.01565754,5.38790135 7.01055085,5.42062144 C7.00635551,5.43742149 7.00303332,5.45442917 7.00059773,5.47157558 C6.99980076,5.48788442 6.99980076,5.50422268 7.00059773,5.52053152 C7.00187232,5.55422153 7.0065409,5.5876955 7.01453209,5.6204416 C7.01906256,5.63634922 7.02437744,5.65202111 7.03045708,5.66739934 C7.03563995,5.68334386 7.04161939,5.69901628 7.04837268,5.71435708 C7.05530283,5.72904271 7.06294264,5.7433802 7.07126485,5.75731841 C7.11470803,5.82925662 7.17554413,5.88901845 7.24813168,5.93106204 C7.26199685,5.93975556 7.2762803,5.94775807 7.29093008,5.95504046 C7.35384643,5.98382762 7.42204804,5.99913953 7.49118673,6 L16.5093054,6 C16.5924122,5.99889138 16.6739193,5.97690854 16.7463886,5.93605755 C16.7755063,5.91922446 16.8028509,5.89947473 16.8280041,5.8771106 C16.969505,5.75416626 17.0303396,5.56193502 16.9854624,5.3795584 C16.9776556,5.34723379 16.9666526,5.31577253 16.9526171,5.28564292 C16.9456869,5.27095729 16.9380471,5.2566198 16.9297249,5.24268159 C16.9122151,5.21405789 16.8918742,5.18727972 16.8690109,5.16275352 C16.8350913,5.125738 16.795798,5.09407593 16.75246,5.06883805 C16.7385746,5.06048415 16.7242915,5.05281526 16.7096616,5.04585873 C16.6467452,5.01707157 16.5785436,5.00175966 16.5094049,5.00089919 L7.49128626,5.00089919 L7.49248064,5 Z M6.49771721,7.00071283 C6.48078234,6.99984535 6.46381437,6.99984535 6.44687949,7.00071283 C6.43044207,7.00322682 6.41414033,7.00656432 6.39803542,7.01071283 C6.38219976,7.014608 6.36656414,7.01928028 6.35118497,7.02471283 C6.28745994,7.04537243 6.22853822,7.07870247 6.17793801,7.12271283 C6.16510758,7.13309428 6.15279837,7.14410782 6.14105575,7.15571283 C6.13011576,7.16818968 6.11980252,7.18120583 6.11015439,7.19471283 C6.0898088,7.22088457 6.07211108,7.24902334 6.05732304,7.27871283 C6.03533082,7.32372207 6.02020953,7.37179273 6.01246623,7.42131283 C6.00826455,7.438128 6.00493733,7.45515098 6.00249806,7.47231283 C5.99916731,7.50556243 5.99916731,7.53906323 6.00249806,7.57231283 C6.00500404,7.58880273 6.00833093,7.60515651 6.01246623,7.62131283 C6.01700356,7.63723476 6.02232648,7.65292076 6.02841532,7.66831283 C6.03904053,7.69959393 6.05273065,7.72974134 6.06928486,7.75831283 C6.09522963,7.80131995 6.12749047,7.84015654 6.16497938,7.87351283 C6.21481763,7.91800755 6.27305254,7.95201268 6.3362327,7.97351283 C6.35226629,7.97900928 6.36856881,7.98368201 6.38507678,7.98751283 C6.40118169,7.99166134 6.41748343,7.99499884 6.43392086,7.99751283 C6.452845,7.9985966 6.47181535,7.9985966 6.49073948,7.99751283 L17.5044813,7.99751283 C17.5541288,7.99652331 17.6033502,7.98809693 17.6505151,7.97251283 C17.6664232,7.96730554 17.6820598,7.96129793 17.6973655,7.95451283 C17.804931,7.90740055 17.8924746,7.82372081 17.9445764,7.71821283 C17.9516776,7.70287748 17.9579989,7.68719066 17.9635159,7.67121283 C17.9696048,7.65582076 17.9749277,7.64013476 17.979465,7.62421283 C17.9836003,7.60805651 17.9869272,7.59170273 17.9894332,7.57521283 C17.9936349,7.55839766 17.9969621,7.54137467 17.9994014,7.52421283 C18.0001995,7.50788931 18.0001995,7.49153635 17.9994014,7.47521283 C17.9971297,7.42520317 17.9873852,7.37581921 17.9704936,7.32871283 C17.9598684,7.29743173 17.9461783,7.26728432 17.9296241,7.23871283 C17.8861152,7.16670987 17.825187,7.10689427 17.7524896,7.06481283 C17.6950669,7.03118772 17.6315187,7.00942735 17.5655862,7.00081283 C17.5466621,6.99972906 17.5276917,6.99972906 17.5087676,7.00081283 L6.4950258,7.00081283 L6.49771721,7.00071283 Z M5.5,9 C5.22386906,9.00002759 5.00002759,9.22386906 5,9.5 L5,18.5 C5.00002759,18.7761309 5.22386906,18.9999724 5.5,19 L18.5,19 C18.7761309,18.9999724 18.9999724,18.7761309 19,18.5 L19,9.5 C18.9999724,9.22386906 18.7761309,9.00002759 18.5,9 L5.5,9 L5.5,9 Z M6,10 L18,10 L18,18 L6,18 L6,10 L6,10 Z" id="rect34176" opacity="0.6"></path>
        </g>
    </g>
</svg>