<?xml version="1.0" encoding="UTF-8"?>
<svg width="38px" height="40px" viewBox="0 0 38 40" version="1.1" xmlns="http://www.w3.org/2000/svg" xmlns:xlink="http://www.w3.org/1999/xlink">
    <!-- Generator: Sketch 64 (93537) - https://sketch.com -->
    <title>picture damaged_dark</title>
    <desc>Created with Sketch.</desc>
    <defs>
        <polygon id="path-1" points="0 0 11 0 11 29.4339623 2.11538462 29.4339623 0 18.1132075"></polygon>
        <rect id="path-3" x="0" y="0" width="21.1320755" height="33.2075472"></rect>
    </defs>
    <g id="深色主题12-10" stroke="none" stroke-width="1" fill="none" fill-rule="evenodd">
        <g id="[1-1]-所有照片-图片已损坏" transform="translate(-638.000000, -421.000000)">
            <g id="picture-damaged_dark" transform="translate(638.000000, 421.000000)">
                <g id="编组-5" transform="translate(20.377358, 3.018868)">
                    <mask id="mask-2" fill="white">
                        <use xlink:href="#path-1"></use>
                    </mask>
                    <g id="矩形"></g>
                    <path d="M8.30188679,6.79245283 C9.87261909,6.79245283 11.3207547,8.2003624 11.3207547,9.81132075 L11.3207547,22.6415094 C11.3207547,24.2524678 9.87261909,25.6603774 8.30188679,25.6603774 L-8.30188679,25.6603774 C-9.87261909,25.6603774 -11.3207547,24.2524678 -11.3207547,22.6415094 L-11.3207547,9.81132075 C-11.3207547,8.2003624 -9.87261909,6.79245283 -8.30188679,6.79245283 L8.30188679,6.79245283 Z M-4.52830189,9.81132075 C-6.36452575,9.81132075 -7.54716981,10.9939648 -7.54716981,12.8301887 C-7.54716981,13.9116956 -6.36452575,15.0943396 -4.52830189,15.0943396 C-3.446795,15.0943396 -2.26415094,13.9116956 -2.26415094,12.8301887 C-2.26415094,10.9939648 -3.446795,9.81132075 -4.52830189,9.81132075 Z" id="形状" fill-opacity="0.25" fill="#FFFFFF" fill-rule="nonzero" mask="url(#mask-2)"></path>
                </g>
                <g id="编组-4" transform="translate(0.000000, 3.773585)">
                    <mask id="mask-4" fill="white">
                        <use xlink:href="#path-3"></use>
                    </mask>
                    <g id="矩形"></g>
                    <path d="M23.1768599,5.98435026 C24.9632256,5.98435026 26.4113613,7.37569618 26.4113613,9.09200837 L26.4113613,21.5226411 C26.4113613,23.2389533 24.9632256,24.6302992 23.1768599,24.6302992 L7.00435313,24.6302992 C5.21798745,24.6302992 3.76985182,23.2389533 3.76985182,21.5226411 L3.76985182,9.09200837 C3.76985182,7.37569618 5.21798745,5.98435026 7.00435313,5.98435026 L23.1768599,5.98435026 Z M19.7378593,13.4397439 L17.1472011,17.6722167 C16.9161274,18.0497322 16.4957328,18.0582249 16.2236795,17.710917 L14.5509163,15.575439 C14.1358832,15.2477271 13.4475122,15.2927119 13.106357,15.6698404 L8.3571424,20.9198404 C7.90809158,21.4162417 8.35748528,22.1057653 9.13006138,22.1057653 L26.2272341,22.1057653 C26.9655416,22.1057653 27.4215736,21.4697907 27.0417176,20.9698972 L21.34266,13.4698972 C20.9839058,12.997774 20.1246479,12.9816291 19.7378593,13.4397439 Z M9.85198279,8.64805725 C8.38085804,8.64805725 7.18827579,9.84063949 7.18827579,11.3117642 C7.18827579,12.782889 8.38085804,13.9754712 9.85198279,13.9754712 C11.3231075,13.9754712 12.5156898,12.782889 12.5156898,11.3117642 C12.5156898,9.84063949 11.3231075,8.64805725 9.85198279,8.64805725 Z" id="形状" fill-opacity="0.25" fill="#FFFFFF" fill-rule="nonzero" mask="url(#mask-4)" transform="translate(15.474198, 15.307325) rotate(-8.000000) translate(-15.474198, -15.307325) "></path>
                </g>
                <polygon id="路径" stroke="#191919" fill="#191919" fill-rule="nonzero" stroke-linejoin="round" transform="translate(23.549760, 19.868264) rotate(20.000000) translate(-23.549760, -19.868264) " points="18.8921087 15.3414037 23.6128623 15.3414037 21.0009266 22.1408836 31.9648725 30.1976291 29.0654859 37.6781438 18.5552182 37.4878033 29.1280646 31.2301428 17.5297939 23.2088627 19.8554012 17.7564981 15.1346476 17.7564981 20.8186936 2.05838487 23.3236677 2.05838487"></polygon>
            </g>
        </g>
    </g>
</svg>