<?xml version="1.0" encoding="UTF-8"?>
<svg width="30px" height="40px" viewBox="0 0 30 40" version="1.1" xmlns="http://www.w3.org/2000/svg" xmlns:xlink="http://www.w3.org/1999/xlink">
    <!-- Generator: Sketch 64 (93537) - https://sketch.com -->
    <title>imagewithbg dark</title>
    <desc>Created with Sketch.</desc>
    <defs>
        <path d="M17.593,15 L17.593,15.206 L15.3355754,17.9054822 L16.9960981,18.5096201 C16.9119668,18.5456061 16.8386672,18.6025637 16.7907527,18.6787257 L16.237,19.951 L15.5183619,20.7204619 L15.7077027,20.9885433 C15.6191007,21.023813 15.5133617,21.0000529 15.4239144,20.9138926 L14.4984846,20.02247 C14.2821991,19.8961095 13.9622675,19.9625909 13.8271022,20.1619826 L11.945469,22.9377106 C11.7675556,23.200163 12.0238108,23.493975 12.3862065,23.4430436 L16.989,22.796 L17.593,23.647 L17.593,23.919 L11.5555189,24.767373 C10.7175806,24.8851376 9.94657405,24.3279599 9.83342772,23.522882 L9.01394944,17.691991 C8.9008031,16.886913 9.48836315,16.1388013 10.3263015,16.0210367 L17.593,15 Z M18.983,15.444 L21.1689196,15.4449797 C21.7018415,15.4449797 22.2049705,15.7871235 22.4475794,16.2616894 L22.4476688,23.565533 C22.2050941,24.0401898 21.7019069,24.3824176 21.1689196,24.3824176 L19.619,24.382 L17.2364468,20.8074424 L19.5006459,18.204033 L17.3993556,17.4392258 L18.983,15.444 Z M11.837654,17.0827859 C11.1475871,17.1797685 10.6667973,17.8177981 10.7637798,18.507865 C10.8607624,19.1979319 11.4987921,19.6787217 12.188859,19.5817392 C12.8789258,19.4847566 13.3597157,18.8467269 13.2627331,18.15666 C13.1657505,17.4665932 12.5277209,16.9858033 11.837654,17.0827859 Z" id="path-1"></path>
    </defs>
    <g id="浅" stroke="none" stroke-width="1" fill="none" fill-rule="evenodd">
        <g id="画板备份" transform="translate(-470.000000, -27.000000)">
            <g id="imagewithbg" transform="translate(470.000000, 27.000000)">
                <rect id="Rectangle-90备份-3" stroke-opacity="0.4" stroke="#000000" fill-opacity="0.3" fill="#000000" fill-rule="nonzero" x="0.5" y="0.5" width="29" height="39" rx="4"></rect>
                <mask id="mask-2" fill="white">
                    <use xlink:href="#path-1"></use>
                </mask>
                <use id="形状结合" fill-opacity="0.25" fill="#FFFFFF" xlink:href="#path-1"></use>
            </g>
        </g>
    </g>
</svg>