<?xml version="1.0" encoding="UTF-8"?>
<svg width="48px" height="39px" viewBox="0 0 48 39" version="1.1" xmlns="http://www.w3.org/2000/svg" xmlns:xlink="http://www.w3.org/1999/xlink">
    <!-- Generator: Sketch 47 (45396) - http://www.bohemiancoding.com/sketch -->
    <title>album_normal</title>
    <desc>Created with Sketch.</desc>
    <defs></defs>
    <g id="Page-1" stroke="none" stroke-width="1" fill="none" fill-rule="evenodd">
        <g id="图标" transform="translate(-137.000000, -549.000000)">
            <g id="顶部工具" transform="translate(89.000000, 548.000000)">
                <g id="相册" transform="translate(48.000000, 0.000000)">
                    <rect id="Rectangle-79-Copy" stroke="#FFFFFF" fill="#000000" opacity="0" x="0" y="0" width="48" height="40"></rect>
                    <path d="M16,13 C16.2238691,13.0000276 16.0000276,13.2238691 16,14 L16,27 C16.0000276,26.7761309 16.2238691,26.9999724 16,27 L29,27 C28.7761309,26.9999724 28.9999724,26.7761309 29,27 L29,14 C28.9999724,13.2238691 28.7761309,13.0000276 29,13 L17,13 L16,13 Z M17,14 L28,14 L28,26 L17,26 L17,14 L17,14 Z M30,14 C30.359608,14.0021243 30.2332666,14.0567176 30,14 C30.0486771,14.2469433 29.9979898,14.374784 30,15 L30,25 C29.9975105,25.6736026 30.0922365,25.841117 30,26 C30.4036967,26.0226976 30.5963033,26.0226976 31,26 C30.9077635,25.841117 31.0024895,25.6736026 31,25 L31,15 C31.0020526,14.3720826 30.9492379,14.2418524 31,14 C30.7578752,14.050705 30.6274983,13.9979497 30,14 L30,14 Z M19,15 C18.2238691,15.0000276 18.0000276,15.2238691 18,16 L18,23 C18.0000276,22.7761309 18.2238691,22.9999724 19,23 L27,23 C26.7761309,22.9999724 26.9999724,22.7761309 27,23 L27,16 C26.9999724,15.2238691 26.7761309,15.0000276 27,15 L19,15 L19,15 Z M19,16 L26,16 L26,22 L19,22 L19,16 L19,16 Z" id="rect34454" fill="#303030"></path>
                </g>
            </g>
        </g>
    </g>
</svg>