<?xml version="1.0" encoding="UTF-8"?>
<svg width="24px" height="24px" viewBox="0 0 24 24" version="1.1" xmlns="http://www.w3.org/2000/svg" xmlns:xlink="http://www.w3.org/1999/xlink">
    <!-- Generator: Sketch 47 (45396) - http://www.bohemiancoding.com/sketch -->
    <title>synchro_press</title>
    <desc>Created with Sketch.</desc>
    <defs></defs>
    <g id="Page-1" stroke="none" stroke-width="1" fill="none" fill-rule="evenodd">
        <g id="图标" transform="translate(-34.000000, -564.000000)">
            <g id="浅同步按钮" transform="translate(34.000000, 516.000000)">
                <g id="Artboard-3-Copy" transform="translate(0.000000, 48.000000)">
                    <rect id="Rectangle" x="0" y="0" width="24" height="24"></rect>
                    <path d="M13.5308347,5.91864329 C10.6895558,6.13326115 8.4509691,8.50662366 8.4509691,11.4028361 C8.4509691,11.6789785 8.67482672,11.9028361 8.9509691,11.9028361 C9.22711147,11.9028361 9.4509691,11.6789785 9.4509691,11.4028361 C9.4509691,9.05510398 11.2488477,7.1272889 13.5429073,6.92108836 C13.7538903,7.49413055 14.3047006,7.90283611 14.9509691,7.90283611 C15.7793962,7.90283611 16.4509691,7.23126324 16.4509691,6.40283611 C16.4509691,5.57440899 15.7793962,4.90283611 14.9509691,4.90283611 C14.2919679,4.90283611 13.7322234,5.32780481 13.5308347,5.91864329 L13.5308347,5.91864329 Z M5.92397577,10.4310284 C6.13859363,13.2723072 8.51195614,15.510894 11.4081686,15.510894 C11.684311,15.510894 11.9081686,15.2870364 11.9081686,15.010894 C11.9081686,14.7347516 11.684311,14.510894 11.4081686,14.510894 C9.06043647,14.510894 7.13262138,12.7130154 6.92642084,10.4189558 C7.49946303,10.2079728 7.90816859,9.65716255 7.90816859,9.01089402 C7.90816859,8.1824669 7.23659572,7.51089402 6.40816859,7.51089402 C5.57974147,7.51089402 4.90816859,8.1824669 4.90816859,9.01089402 C4.90816859,9.66989522 5.33313729,10.2296396 5.92397577,10.4310284 L5.92397577,10.4310284 Z M10.4710089,18.1024528 C13.3122877,17.8878349 15.5508745,15.5144724 15.5508745,12.6182599 C15.5508745,12.3421176 15.3270169,12.1182599 15.0508745,12.1182599 C14.7747321,12.1182599 14.5508745,12.3421176 14.5508745,12.6182599 C14.5508745,14.9659921 12.7529959,16.8938071 10.4589362,17.1000077 C10.2479532,16.5269655 9.69714302,16.1182599 9.05087449,16.1182599 C8.22244736,16.1182599 7.55087449,16.7898328 7.55087449,17.6182599 C7.55087449,18.4466871 8.22244736,19.1182599 9.05087449,19.1182599 C9.70987569,19.1182599 10.2696201,18.6932912 10.4710089,18.1024528 L10.4710089,18.1024528 Z M18.121849,13.5624249 C17.9072311,10.7211461 15.5338686,8.48255936 12.6376562,8.48255936 C12.3615138,8.48255936 12.1376562,8.70641698 12.1376562,8.98255936 C12.1376562,9.25870173 12.3615138,9.48255936 12.6376562,9.48255936 C14.9853883,9.48255936 16.9132034,11.2804379 17.1194039,13.5744976 C16.5463617,13.7854806 16.1376562,14.3362908 16.1376562,14.9825593 C16.1376562,15.8109865 16.8092291,16.4825593 17.6376562,16.4825593 C18.4660833,16.4825593 19.1376562,15.8109865 19.1376562,14.9825593 C19.1376562,14.3235581 18.7126875,13.7638137 18.121849,13.5624249 L18.121849,13.5624249 Z" id="Combined-Shape" fill="#01BCFF" transform="translate(12.022912, 12.010548) rotate(17.000000) translate(-12.022912, -12.010548) "></path>
                </g>
            </g>
        </g>
    </g>
</svg>