<?xml version="1.0" encoding="UTF-8"?>
<svg width="48px" height="39px" viewBox="0 0 48 39" version="1.1" xmlns="http://www.w3.org/2000/svg" xmlns:xlink="http://www.w3.org/1999/xlink">
    <!-- Generator: Sketch 47 (45396) - http://www.bohemiancoding.com/sketch -->
    <title>timeline_active</title>
    <desc>Created with Sketch.</desc>
    <defs></defs>
    <g id="Page-1" stroke="none" stroke-width="1" fill="none" fill-rule="evenodd">
        <g id="图标" transform="translate(-285.000000, -549.000000)">
            <g id="顶部工具" transform="translate(89.000000, 548.000000)">
                <g id="时间线选中" transform="translate(196.000000, 0.000000)">
                    <rect id="Rectangle-79-Copy-84" stroke="#FFFFFF" fill="#000000" opacity="0" x="0" y="0" width="48" height="40"></rect>
                    <rect id="Rectangle-79-Copy-84" fill="#2CA7F8" x="0" y="38" width="48" height="2"></rect>
                    <path d="M24.5,13 C20.3638,13 17,16.3637 17,20.5 C17,24.6362 20.3638,28 24.5,28 C28.6362,28 32,24.6362 32,20.5 C32,16.3637 28.6362,13 24.5,13 L24.5,13 Z M24.49,15.4922 C24.6249798,15.4900983 24.7550749,15.5426609 24.8507103,15.6379385 C24.9463458,15.7332161 24.9993957,15.8631133 24.9978,15.9981 L24.9978,20.2735 L28.3239,23.1231 C28.530182,23.3035557 28.5527762,23.6164295 28.3745624,23.8246515 C28.1963487,24.0328736 27.8837377,24.0588509 27.6736,23.8829 L24.1736,20.8829 C24.0619995,20.7878408 23.9977335,20.6485978 23.9978,20.502 L23.9978,15.9981 C23.9945442,15.7226926 24.214607,15.4965045 24.49,15.4922 L24.49,15.4922 Z" id="path34790" fill="#2CA7F8"></path>
                </g>
            </g>
        </g>
    </g>
</svg>