<?xml version="1.0" encoding="UTF-8"?>
<svg width="36px" height="36px" viewBox="0 0 36 36" version="1.1" xmlns="http://www.w3.org/2000/svg" xmlns:xlink="http://www.w3.org/1999/xlink">
    <!-- Generator: Sketch 56.2 (81672) - https://sketch.com -->
    <title>1:1_normal</title>
    <desc>Created with Sketch.</desc>
    <g id="页面-1" stroke="none" stroke-width="1" fill="none" fill-rule="evenodd">
        <g id="按钮规范" transform="translate(-258.000000, -54.000000)" fill="#000000">
            <g id="1:1" transform="translate(251.000000, 47.000000)">
                <g id="编组" transform="translate(7.000000, 7.000000)">
                    <path d="M13.1409279,13.1519589 C13.0486219,13.2471905 12.9979284,13.3751909 13,13.5078 L13,22.4942 C12.9974506,22.6745175 13.0921886,22.8422394 13.2479371,22.9331421 C13.4036855,23.0240448 13.5963145,23.0240448 13.7520629,22.9331421 C13.9078114,22.8422394 14.0025494,22.6745175 14,22.4942 L14,13.5078 C14.0021139,13.3724861 13.9492928,13.2420933 13.8535998,13.1464002 C13.7579067,13.0507072 13.6275139,12.9978861 13.4922,13 C13.3595908,13.0020658 13.233234,13.0567273 13.1409279,13.1519589 Z M22.1409279,13.1519589 C22.0486219,13.2471905 21.9979284,13.3751909 22,13.5078 L22,22.4942 C21.9974506,22.6745175 22.0921886,22.8422394 22.2479371,22.9331421 C22.4036855,23.0240448 22.5963145,23.0240448 22.7520629,22.9331421 C22.9078114,22.8422394 23.0025494,22.6745175 23,22.4942 L23,13.5078 C23.0021139,13.3724861 22.9492928,13.2420933 22.8535998,13.1464002 C22.7579067,13.0507072 22.6275139,12.9978861 22.4922,13 C22.3595908,13.0020658 22.233234,13.0567273 22.1409279,13.1519589 Z M17.0347969,15.2720719 C16.95336,15.4313351 16.9630812,15.6219476 17.0602983,15.7720994 C17.1575153,15.9222513 17.3274567,16.0091279 17.5061,16 L18.4944,16 C18.6747185,16.0025509 18.842442,15.9078133 18.9333457,15.7520642 C19.0242493,15.5963151 19.0242493,15.4036849 18.9333457,15.2479358 C18.842442,15.0921867 18.6747185,14.9974491 18.4944,15 L17.5061,15 C17.4891111,14.9991325 17.4720889,14.9991325 17.4551,15 C17.276455,15.0090938 17.1162338,15.1128087 17.0347969,15.2720719 Z M17.4551,20 C17.276455,20.0090938 17.1162338,20.1128087 17.0347969,20.2720719 C16.95336,20.4313351 16.9630812,20.6219476 17.0602983,20.7720994 C17.1575153,20.9222513 17.3274567,21.0091279 17.5061,21 L18.4905,21 C18.6708175,21.0025494 18.8385394,20.9078114 18.9294421,20.7520629 C19.0203448,20.5963145 19.0203448,20.4036855 18.9294421,20.2479371 C18.8385394,20.0921886 18.6708175,19.9974506 18.4905,20 L17.5042,20 C17.4872111,19.9991325 17.4701889,19.9991325 17.4532,20 L17.4551,20 Z" id="rect34574"></path>
                    <path d="M11.9925398,9 C10.3398057,9 9,10.3529255 9,11.9925398 L9,24.0074602 C9,25.6601943 10.3529255,27 11.9925398,27 L24.0074602,27 C25.6601943,27 27,25.6470745 27,24.0074602 L27,11.9925398 C27,10.3398057 25.6470745,9 24.0074602,9 L11.9925398,9 Z M24.0059397,10 C25.1072288,10 26,10.8945138 26,11.9940603 L26,24.0059397 C26,25.1072288 25.1054862,26 24.0059397,26 L11.9940603,26 C10.8927712,26 10,25.1054862 10,24.0059397 L10,11.9940603 C10,10.8927712 10.8945138,10 11.9940603,10 L24.0059397,10 Z" id="rect34584"></path>
                </g>
            </g>
        </g>
    </g>
</svg>