<?xml version="1.0" encoding="UTF-8" standalone="no"?>
<svg width="24px" height="24px" viewBox="0 0 24 24" version="1.1" xmlns="http://www.w3.org/2000/svg" xmlns:xlink="http://www.w3.org/1999/xlink">
    <!-- Generator: Sketch 3.8.3 (29802) - http://www.bohemiancoding.com/sketch -->
    <title>album-active</title>
    <desc>Created with Sketch.</desc>
    <defs></defs>
    <g id="Page-1" stroke="none" stroke-width="1" fill="none" fill-rule="evenodd">
        <g id="深度看图图标导出" transform="translate(-393.000000, -110.369995)">
            <g id="layer1">
                <rect id="rect38567" opacity="0" x="-2.84217094e-14" y="0" width="893.46198" height="228.77823" rx="0.000115532"></rect>
                <g id="album-active" transform="translate(393.000000, 110.000000)">
                    <rect id="rect34794" fill="#000000" opacity="0" x="0.00115" y="0.36206" width="24" height="24"></rect>
                    <path d="M5.00709,5.3426 L5.00709,19.3426 L18.00709,19.3426 L18.00709,5.3426 L5.00709,5.3426 L5.00709,5.3426 Z M19.49929,6.3426 C19.3666808,6.34466584 19.240324,6.39932732 19.148018,6.49455893 C19.0557119,6.58979053 19.0050184,6.71779092 19.00709,6.8504 L19.00709,17.8504 C19.0045391,18.0307185 19.0992767,18.198442 19.2550258,18.2893457 C19.4107749,18.3802493 19.6034051,18.3802493 19.7591542,18.2893457 C19.9149033,18.198442 20.0096409,18.0307185 20.00709,17.8504 L20.00709,6.8504 C20.0092039,6.71508609 19.9563828,6.58469331 19.8606897,6.48900025 C19.7649967,6.3933072 19.6346039,6.34048609 19.49929,6.3426 L19.49929,6.3426 Z M7.01489,7.3426 L16.00319,7.3426 L16.00319,15.3465 L7.01489,15.3465 L7.01489,7.3426 L7.01489,7.3426 Z M8.00709,8.3426 L8.00709,14.3426 L15.00709,14.3426 L15.00709,8.3426 L8.00709,8.3426 L8.00709,8.3426 Z" id="path34796" fill="#01BCFF"></path>
                </g>
            </g>
        </g>
    </g>
</svg>