<?xml version="1.0" encoding="UTF-8"?>
<svg width="48px" height="39px" viewBox="0 0 48 39" version="1.1" xmlns="http://www.w3.org/2000/svg" xmlns:xlink="http://www.w3.org/1999/xlink">
    <!-- Generator: Sketch 47 (45396) - http://www.bohemiancoding.com/sketch -->
    <title>contrarotate_disable</title>
    <desc>Created with Sketch.</desc>
    <defs></defs>
    <g id="Page-1" stroke="none" stroke-width="1" fill="none" fill-rule="evenodd">
        <g id="图标" transform="translate(-283.000000, -263.000000)">
            <g id="disable" transform="translate(91.000000, 262.000000)">
                <g id="删除" transform="translate(192.000000, 0.000000)">
                    <rect id="Rectangle-175" stroke="#FFFFFF" fill="#000000" opacity="0" x="0" y="0" width="48" height="40"></rect>
                    <path d="M28.5709373,15.4290629 L26.9999758,17.0000244 L30.9999758,17.0000244 L30.9999758,13.0000244 L29.424652,14.5753482 C28.1898346,13.5665401 26.6391038,13 25.0000001,13 C21.1340068,13 18,16.1340068 18,20.0000001 C18,23.8659934 21.1340068,27.0000002 25.0000001,27.0000002 C26.3133793,27.0000002 27.5748289,26.6371396 28.6692558,25.9623076 C28.9513165,25.7883869 29.0389812,25.4187409 28.8650604,25.1366802 C28.6911397,24.8546196 28.3214937,24.7669549 28.0394331,24.9408756 C27.1330071,25.4997848 26.0893375,25.8000002 25.0000001,25.8000002 C21.7967485,25.8000002 19.2,23.2032517 19.2,20.0000001 C19.2,16.7967485 21.7967485,14.2 25.0000001,14.2 C26.3172323,14.2 27.5637361,14.6405116 28.5709373,15.4290629 L28.5709373,15.4290629 Z M24.9999758,21.0000244 C24.447691,21.0000244 23.9999758,20.5523092 23.9999758,20.0000244 C23.9999758,19.4477397 24.447691,19.0000244 24.9999758,19.0000244 C25.5522605,19.0000244 25.9999758,19.4477397 25.9999758,20.0000244 C25.9999758,20.5523092 25.5522605,21.0000244 24.9999758,21.0000244 L24.9999758,21.0000244 Z" id="Combined-Shape" fill="#FFFFFF" opacity="0.300000012"></path>
                </g>
            </g>
        </g>
    </g>
</svg>