<?xml version="1.0" encoding="UTF-8"?>
<svg width="24px" height="24px" viewBox="0 0 24 24" version="1.1" xmlns="http://www.w3.org/2000/svg" xmlns:xlink="http://www.w3.org/1999/xlink">
    <!-- Generator: Sketch 47 (45396) - http://www.bohemiancoding.com/sketch -->
    <title>return_press</title>
    <desc>Created with Sketch.</desc>
    <defs></defs>
    <g id="Page-1" stroke="none" stroke-width="1" fill="none" fill-rule="evenodd">
        <g id="图标" transform="translate(-224.000000, -37.000000)" fill="#01BCFF">
            <g id="Group-8-Copy-2" transform="translate(224.000000, 37.000000)">
                <path d="M8.47421211,5.00083054 C8.27103168,5.01184828 8.09478918,5.14488338 8.02850974,5.33726507 C7.9622303,5.52964675 8.0191331,5.7430052 8.17241211,5.87683054 L15.2593121,12.2546305 L8.17241211,18.6326305 C8.03591843,18.7510215 7.97390846,18.9338375 8.01020716,19.1108385 C8.04650587,19.2878395 8.17546677,19.4314919 8.34754156,19.4866027 C8.51961636,19.5417136 8.70803779,19.4997101 8.84041211,19.3767305 L16.3404121,12.6267305 C16.4460251,12.5318878 16.5063531,12.3966286 16.5063531,12.2546805 C16.5063531,12.1127325 16.4460251,11.9774733 16.3404121,11.8826305 L8.84041211,5.13263054 C8.74116866,5.04101131 8.60908292,4.99343592 8.47421211,5.00073054 L8.47421211,5.00083054 Z" id="polyline34476" transform="translate(12.253177, 12.255221) scale(-1, 1) translate(-12.253177, -12.255221) "></path>
            </g>
        </g>
    </g>
</svg>