<?xml version="1.0" encoding="UTF-8" standalone="no"?>
<svg width="103px" height="103px" viewBox="0 0 103 103" version="1.1" xmlns="http://www.w3.org/2000/svg" xmlns:xlink="http://www.w3.org/1999/xlink">
    <!-- Generator: Sketch 3.7.1 (28215) - http://www.bohemiancoding.com/sketch -->
    <title>Group 2</title>
    <desc>Created with Sketch.</desc>
    <defs>
        <polygon id="path-1" points="102.783019 102.366966 0.783018868 102.720532 0.783018868 0.720531613 102.783019 1.07409698"></polygon>
    </defs>
    <g id="查看" stroke="none" stroke-width="1" fill="none" fill-rule="evenodd">
        <g id="8.添加相册" transform="translate(-125.000000, -343.000000)">
            <g id="新建相册" transform="translate(50.000000, 51.000000)">
                <g id="bg">
                    <g id="相册-2" transform="translate(71.000000, -107.000000)">
                        <g id="新建相册" transform="translate(0.000000, 394.000000)">
                            <g id="Group">
                                <g id="Group-2" transform="translate(4.000000, 5.000000)">
                                    <mask id="mask-2" fill="white">
                                        <use xlink:href="#path-1"></use>
                                    </mask>
                                    <use id="Rectangle-1002" fill="#BFBFBF" xlink:href="#path-1"></use>
                                    <path d="M111.340287,105.471382 L-11.2742424,105.471382 L-11.2742424,53.2856014 C-8.68719616,50.2217677 -1.14025481,45.2705212 16.7296969,57.4600615 C40.2135793,73.4790041 35.1826905,25.912934 65.6075524,43.4415277 C82.2064239,53.0045908 96.3982227,63.3202647 111.340291,70.1266744 L111.340287,105.471382 Z M82.4545466,32.4732951 C85.744371,32.4732951 88.4113005,29.7880033 88.4113005,26.475528 C88.4113005,23.1630527 85.744371,20.477761 82.4545466,20.477761 C79.1647222,20.477761 76.4977926,23.1630527 76.4977926,26.475528 C76.4977926,29.7880033 79.1647222,32.4732951 82.4545466,32.4732951 L82.4545466,32.4732951 L82.4545466,32.4732951 Z" id="cover-3" fill="#5B5B5B" opacity="0.6" mask="url(#mask-2)"></path>
                                </g>
                            </g>
                        </g>
                    </g>
                </g>
            </g>
        </g>
    </g>
</svg>